<?xml version="1.0" encoding="UTF-8"?>
<svg xmlns="http://www.w3.org/2000/svg" xmlns:xlink="http://www.w3.org/1999/xlink" width="150px" height="38px" viewBox="0 0 150 38" version="1.1">
<g id="surface1">
<path style=" stroke:none;fill-rule:nonzero;fill:rgb(0%,0%,0%);fill-opacity:1;" d="M 85.75 2.710938 C 85.640625 2.792969 85.554688 7.152344 85.554688 12.351562 L 85.554688 21.792969 L 88.609375 21.792969 L 88.609375 2.515625 L 87.277344 2.515625 C 86.527344 2.515625 85.832031 2.597656 85.75 2.710938 Z M 85.75 2.710938 "/>
<path style=" stroke:none;fill-rule:nonzero;fill:rgb(0%,0%,0%);fill-opacity:1;" d="M 116.109375 3.4375 C 115.332031 3.828125 115.027344 5.085938 115.582031 5.757812 C 115.75 5.980469 116.332031 6.148438 116.832031 6.148438 C 118.582031 6.148438 119.082031 4.191406 117.5 3.351562 C 116.859375 3.019531 116.945312 3.019531 116.109375 3.4375 Z M 116.109375 3.4375 "/>
<path style=" stroke:none;fill-rule:nonzero;fill:rgb(0%,0%,0%);fill-opacity:1;" d="M 30.417969 3.605469 C 28.109375 4.164062 26.25 6.035156 25.472656 8.464844 C 24.777344 10.671875 24.832031 15.03125 25.582031 17.269531 C 26.554688 20.203125 29.082031 22.074219 32 22.074219 C 35.640625 22.074219 38.417969 20.007812 39.054688 16.792969 L 39.25 15.925781 L 36.25 15.925781 L 35.832031 17.238281 C 35.527344 18.21875 35.195312 18.664062 34.445312 19.054688 C 32.304688 20.171875 29.722656 19.417969 28.695312 17.324219 C 28.140625 16.261719 28.054688 15.648438 28.054688 12.851562 C 28.054688 9.304688 28.445312 7.992188 29.832031 6.707031 C 30.5 6.117188 30.859375 6.007812 32.417969 6.007812 C 34.109375 6.007812 34.25 6.0625 35.027344 6.929688 C 35.472656 7.433594 35.917969 8.214844 36.027344 8.691406 C 36.167969 9.472656 36.25 9.5 37.667969 9.5 C 39.445312 9.5 39.527344 9.277344 38.5 7.097656 C 37.167969 4.21875 33.804688 2.792969 30.417969 3.605469 Z M 30.417969 3.605469 "/>
<path style=" stroke:none;fill-rule:nonzero;fill:rgb(0%,0%,0%);fill-opacity:1;" d="M 54.390625 3.6875 C 52.890625 4.078125 50.917969 5.953125 50.554688 7.292969 C 49.804688 10.03125 51.75 12.433594 55.695312 13.691406 C 58.359375 14.53125 59.390625 15.144531 59.859375 16.09375 C 60.75 18.023438 59.472656 19.558594 56.972656 19.558594 C 54.832031 19.558594 53.667969 18.972656 53.140625 17.601562 C 52.695312 16.484375 52.667969 16.484375 51.25 16.484375 L 49.777344 16.484375 L 50 17.464844 C 50.472656 19.613281 52.332031 21.234375 54.972656 21.792969 C 58.832031 22.605469 62.332031 21.152344 63.082031 18.355469 C 63.890625 15.3125 61.832031 12.769531 57.5 11.457031 C 54.027344 10.394531 52.917969 9.191406 53.75 7.433594 C 54.277344 6.285156 55.167969 5.867188 56.917969 5.867188 C 58.527344 5.867188 59.527344 6.566406 60 7.964844 C 60.304688 8.914062 60.359375 8.941406 61.832031 8.941406 L 63.332031 8.941406 L 63.140625 8.019531 C 62.5 4.554688 58.5 2.570312 54.390625 3.6875 Z M 54.390625 3.6875 "/>
<path style=" stroke:none;fill-rule:nonzero;fill:rgb(0%,0%,0%);fill-opacity:1;" d="M 3.890625 12.714844 L 3.890625 21.792969 L 7.027344 21.792969 L 6.859375 14.863281 C 6.75 11.066406 6.777344 8.160156 6.890625 8.382812 C 7.027344 8.605469 8.25 11.734375 9.582031 15.3125 L 12.054688 21.820312 L 13.167969 21.738281 L 14.304688 21.65625 L 16.832031 15.003906 C 18.25 11.34375 19.445312 8.269531 19.527344 8.214844 C 19.582031 8.132812 19.582031 11.175781 19.5 14.949219 L 19.359375 21.792969 L 22.5 21.792969 L 22.5 3.632812 L 18.417969 3.632812 L 15.832031 10.617188 C 14.417969 14.472656 13.140625 17.519531 13.054688 17.40625 C 12.945312 17.269531 12.390625 15.925781 11.859375 14.390625 C 10.972656 11.875 8.917969 6.425781 8.109375 4.386719 C 7.804688 3.660156 7.722656 3.632812 5.832031 3.632812 L 3.890625 3.632812 Z M 3.890625 12.714844 "/>
<path style=" stroke:none;fill-rule:nonzero;fill:rgb(0%,0%,0%);fill-opacity:1;" d="M 73.109375 4.136719 C 72.859375 4.304688 72.777344 5.226562 72.832031 7.65625 L 72.917969 10.953125 L 76.082031 8.523438 C 77.804688 7.179688 79.167969 6.203125 79.082031 6.34375 C 79 6.480469 77.972656 7.347656 76.832031 8.269531 C 75.667969 9.164062 74.722656 9.976562 74.722656 10.058594 C 74.722656 10.144531 76.222656 10.5625 78.082031 11.035156 C 79.917969 11.484375 81.304688 11.902344 81.167969 11.957031 C 81.027344 11.988281 79.917969 11.792969 78.667969 11.511719 C 76.390625 10.980469 76.140625 11.035156 76.640625 11.957031 C 77.359375 13.242188 79.445312 17.992188 79.359375 18.078125 C 79.304688 18.132812 78.667969 16.960938 77.945312 15.480469 L 76.640625 12.769531 L 74.722656 16.570312 C 73.640625 18.664062 72.777344 20.453125 72.777344 20.566406 C 72.777344 20.648438 73.695312 20.703125 74.804688 20.648438 C 76.945312 20.535156 79.667969 19.417969 79.5 18.75 C 79.472656 18.554688 79.527344 18.46875 79.667969 18.554688 C 80.082031 18.804688 81.304688 17.269531 82.082031 15.5625 C 82.722656 14.167969 82.832031 13.636719 82.722656 11.929688 C 82.554688 8.578125 80.804688 6.007812 77.832031 4.695312 C 76.472656 4.078125 73.667969 3.742188 73.109375 4.136719 Z M 82.417969 12.183594 C 82.332031 12.265625 82.082031 12.292969 81.890625 12.210938 C 81.667969 12.125 81.75 12.042969 82.054688 12.042969 C 82.359375 12.015625 82.527344 12.097656 82.417969 12.183594 Z M 82.417969 12.183594 "/>
<path style=" stroke:none;fill-rule:nonzero;fill:rgb(0%,0%,0%);fill-opacity:1;" d="M 70.972656 4.863281 C 69.082031 5.757812 68.027344 6.84375 67.082031 8.800781 C 65.222656 12.601562 66.582031 17.378906 70.109375 19.390625 C 72.445312 20.730469 72.332031 20.789062 73.917969 17.464844 C 74.695312 15.84375 75.277344 14.445312 75.222656 14.390625 C 75.167969 14.332031 73.695312 14.585938 71.945312 14.976562 C 70.222656 15.339844 68.667969 15.617188 68.527344 15.5625 C 68.359375 15.507812 68.972656 15.3125 69.890625 15.117188 C 70.777344 14.921875 72 14.640625 72.582031 14.5 L 73.609375 14.222656 L 70.417969 11.566406 C 68.667969 10.113281 67.222656 8.828125 67.222656 8.746094 C 67.222656 8.660156 67.445312 8.773438 67.722656 8.996094 C 67.972656 9.21875 69.167969 10.199219 70.359375 11.148438 L 72.5 12.882812 L 72.5 8.550781 C 72.5 6.148438 72.472656 4.191406 72.445312 4.191406 C 72.390625 4.191406 71.75 4.5 70.972656 4.863281 Z M 67.972656 15.816406 C 67.890625 15.898438 67.640625 15.925781 67.445312 15.84375 C 67.222656 15.757812 67.304688 15.675781 67.609375 15.675781 C 67.917969 15.648438 68.082031 15.730469 67.972656 15.816406 Z M 67.972656 15.816406 "/>
<path style=" stroke:none;fill-rule:nonzero;fill:rgb(0%,0%,0%);fill-opacity:1;" d="M 107.222656 6.707031 L 107.222656 8.382812 L 104.972656 8.382812 L 105.054688 9.417969 C 105.140625 10.449219 105.167969 10.476562 106.195312 10.449219 L 107.222656 10.394531 L 107.222656 14.5 C 107.222656 18.917969 107.472656 20.367188 108.390625 21.234375 C 109.109375 21.90625 110.5 22.183594 111.804688 21.960938 C 112.722656 21.765625 112.777344 21.710938 112.777344 20.675781 C 112.777344 19.585938 112.75 19.558594 111.859375 19.558594 C 110.359375 19.558594 110.277344 19.308594 110.277344 14.753906 L 110.277344 10.617188 L 110.945312 10.617188 C 112.167969 10.617188 112.5 10.339844 112.5 9.332031 C 112.5 8.410156 112.472656 8.382812 111.390625 8.382812 L 110.277344 8.382812 L 110.277344 5.03125 L 107.222656 5.03125 Z M 107.222656 6.707031 "/>
<path style=" stroke:none;fill-rule:nonzero;fill:rgb(0%,0%,0%);fill-opacity:1;" d="M 125.445312 8.523438 C 122.917969 9.417969 121.527344 11.875 121.527344 15.394531 C 121.527344 17.269531 121.640625 17.6875 122.359375 18.886719 C 122.832031 19.644531 123.75 20.621094 124.417969 21.09375 C 125.472656 21.851562 125.804688 21.933594 127.582031 21.90625 C 128.859375 21.90625 129.890625 21.738281 130.445312 21.429688 C 133.109375 20.035156 134.5 16.148438 133.582031 12.714844 C 132.640625 9.136719 128.972656 7.265625 125.445312 8.523438 Z M 129.859375 11.457031 C 130.609375 12.238281 130.695312 12.488281 130.804688 14.53125 C 130.945312 17.910156 129.972656 19.613281 127.832031 19.671875 C 125.609375 19.726562 124.445312 18.105469 124.445312 15.03125 C 124.445312 12.851562 125.054688 11.484375 126.390625 10.8125 C 127.640625 10.171875 128.777344 10.394531 129.859375 11.457031 Z M 129.859375 11.457031 "/>
<path style=" stroke:none;fill-rule:nonzero;fill:rgb(0%,0%,0%);fill-opacity:1;" d="M 141.804688 8.550781 C 141.359375 8.773438 140.777344 9.164062 140.527344 9.386719 C 139.917969 9.945312 139.722656 9.890625 139.722656 9.082031 C 139.722656 8.4375 139.640625 8.382812 138.332031 8.382812 L 136.945312 8.382812 L 136.945312 21.792969 L 140 21.792969 L 140 16.820312 C 140 11.261719 140.054688 11.066406 142 10.644531 C 144.75 10.085938 145.109375 10.785156 145.222656 16.960938 L 145.332031 21.792969 L 148.109375 21.792969 L 148 16.234375 C 147.917969 11.121094 147.859375 10.589844 147.332031 9.863281 C 146.140625 8.242188 143.554688 7.628906 141.804688 8.550781 Z M 141.804688 8.550781 "/>
<path style=" stroke:none;fill-rule:nonzero;fill:rgb(0%,0%,0%);fill-opacity:1;" d="M 91.109375 13.496094 C 91.109375 18.246094 91.167969 18.691406 91.75 19.839844 C 92.582031 21.515625 93.832031 22.15625 95.890625 21.988281 C 96.890625 21.90625 97.777344 21.625 98.304688 21.261719 C 99.304688 20.535156 99.445312 20.535156 99.445312 21.234375 C 99.445312 21.710938 99.640625 21.792969 100.832031 21.792969 L 102.222656 21.792969 L 102.222656 8.382812 L 99.167969 8.382812 L 99.167969 18.414062 L 98.445312 18.972656 C 97.917969 19.390625 97.304688 19.558594 96.359375 19.558594 C 94.222656 19.558594 94.054688 19.113281 93.945312 13.214844 L 93.832031 8.382812 L 91.109375 8.382812 Z M 91.109375 13.496094 "/>
<path style=" stroke:none;fill-rule:nonzero;fill:rgb(0%,0%,0%);fill-opacity:1;" d="M 115.445312 8.605469 C 115.25 8.941406 115.25 20.871094 115.445312 21.375 C 115.554688 21.65625 116.027344 21.792969 116.972656 21.792969 L 118.332031 21.792969 L 118.332031 8.382812 L 116.972656 8.382812 C 116.195312 8.382812 115.527344 8.492188 115.445312 8.605469 Z M 115.445312 8.605469 "/>
<path style=" stroke:none;fill-rule:nonzero;fill:rgb(0%,0%,0%);fill-opacity:1;" d="M 65 27.132812 C 63.859375 27.578125 63.332031 28.5 63.332031 30.066406 C 63.332031 31.238281 63.472656 31.628906 64.054688 32.242188 C 65.140625 33.332031 67.5 33.167969 67.5 32.019531 C 67.5 31.851562 67.359375 31.882812 67.167969 32.078125 C 66.667969 32.578125 65.140625 32.46875 64.609375 31.882812 C 62.972656 30.066406 64.667969 26.570312 66.667969 27.660156 C 66.945312 27.800781 67.25 27.828125 67.332031 27.691406 C 67.417969 27.578125 67.167969 27.328125 66.777344 27.132812 C 65.972656 26.769531 65.917969 26.769531 65 27.132812 Z M 65 27.132812 "/>
<path style=" stroke:none;fill-rule:nonzero;fill:rgb(0%,0%,0%);fill-opacity:1;" d="M 69.832031 27.214844 C 67.609375 28.21875 68.054688 32.578125 70.417969 33.054688 C 71.332031 33.222656 72.640625 32.523438 73.027344 31.683594 C 73.195312 31.292969 73.332031 30.429688 73.332031 29.757812 C 73.332031 27.632812 71.667969 26.40625 69.832031 27.214844 Z M 71.695312 27.660156 C 72.140625 27.660156 72.722656 29.199219 72.640625 30.261719 C 72.582031 31.519531 71.832031 32.410156 70.832031 32.410156 C 69.75 32.410156 69.082031 31.519531 69.054688 30.007812 C 69.027344 28.917969 69.140625 28.613281 69.832031 28.054688 C 70.277344 27.660156 70.804688 27.410156 71.027344 27.492188 C 71.25 27.578125 71.554688 27.660156 71.695312 27.660156 Z M 71.695312 27.660156 "/>
<path style=" stroke:none;fill-rule:nonzero;fill:rgb(0%,0%,0%);fill-opacity:1;" d="M 95.832031 27.1875 C 94.777344 27.71875 94.054688 29.28125 94.277344 30.511719 C 94.582031 32.160156 95.390625 32.96875 96.777344 32.96875 C 98.25 32.96875 98.609375 32.605469 98.609375 31.097656 C 98.609375 29.953125 98.582031 29.898438 97.777344 29.898438 C 97.332031 29.898438 96.945312 30.007812 96.945312 30.175781 C 96.945312 30.316406 97.195312 30.457031 97.5 30.457031 C 97.945312 30.457031 98.054688 30.652344 98.054688 31.433594 C 98.054688 32.441406 97.777344 32.578125 96.390625 32.441406 C 94.859375 32.242188 94.472656 28.917969 95.890625 27.855469 C 96.5 27.410156 96.75 27.355469 97.472656 27.605469 C 98.5 27.96875 98.859375 27.578125 97.890625 27.132812 C 97.027344 26.738281 96.695312 26.738281 95.832031 27.1875 Z M 95.832031 27.1875 "/>
<path style=" stroke:none;fill-rule:nonzero;fill:rgb(0%,0%,0%);fill-opacity:1;" d="M 53.332031 30.035156 C 53.332031 31.796875 53.445312 32.96875 53.609375 32.96875 C 53.777344 32.96875 53.890625 32.410156 53.890625 31.714844 C 53.890625 30.59375 53.945312 30.457031 54.527344 30.457031 C 54.972656 30.457031 55.304688 30.792969 55.804688 31.714844 C 56.167969 32.410156 56.640625 32.96875 56.859375 32.96875 C 57.167969 32.96875 57.109375 32.664062 56.554688 31.714844 L 55.859375 30.457031 L 56.554688 29.757812 C 57.332031 28.976562 57.390625 28.582031 56.777344 27.71875 C 56.445312 27.214844 56.082031 27.101562 54.832031 27.101562 L 53.332031 27.101562 Z M 55.667969 27.660156 C 56.167969 27.828125 56.390625 28.136719 56.390625 28.582031 C 56.390625 29.476562 55.890625 29.898438 54.804688 29.898438 C 53.917969 29.898438 53.890625 29.867188 53.890625 28.640625 C 53.890625 27.269531 54.195312 27.101562 55.667969 27.660156 Z M 55.667969 27.660156 "/>
<path style=" stroke:none;fill-rule:nonzero;fill:rgb(0%,0%,0%);fill-opacity:1;" d="M 58.609375 30.035156 L 58.609375 32.96875 L 60.417969 32.96875 C 61.445312 32.96875 62.222656 32.859375 62.222656 32.691406 C 62.222656 32.523438 61.554688 32.410156 60.75 32.410156 L 59.277344 32.410156 L 59.390625 31.292969 C 59.5 30.203125 59.527344 30.175781 60.582031 30.175781 C 62.027344 30.175781 61.972656 29.671875 60.5 29.5625 C 59.417969 29.476562 59.359375 29.421875 59.332031 28.554688 C 59.304688 27.605469 59.445312 27.523438 61.054688 27.632812 C 61.527344 27.691406 61.945312 27.578125 61.945312 27.410156 C 61.945312 27.214844 61.277344 27.101562 60.277344 27.101562 L 58.609375 27.101562 Z M 58.609375 30.035156 "/>
<path style=" stroke:none;fill-rule:nonzero;fill:rgb(0%,0%,0%);fill-opacity:1;" d="M 74.917969 27.296875 C 74.832031 27.4375 74.804688 28.75 74.804688 30.230469 C 74.804688 32.355469 74.890625 32.96875 75.195312 32.96875 C 75.445312 32.96875 75.554688 32.578125 75.554688 31.714844 C 75.554688 30.625 75.640625 30.457031 76.109375 30.457031 C 76.5 30.457031 76.945312 30.875 77.445312 31.714844 C 77.859375 32.410156 78.359375 32.96875 78.554688 32.96875 C 78.804688 32.96875 78.667969 32.550781 78.167969 31.714844 L 77.445312 30.457031 L 78.054688 29.953125 C 78.75 29.394531 78.890625 28.191406 78.332031 27.523438 C 77.972656 27.074219 75.140625 26.90625 74.917969 27.296875 Z M 77.527344 27.660156 C 78.109375 27.996094 78.222656 29.058594 77.722656 29.5625 C 77.527344 29.757812 76.972656 29.898438 76.472656 29.898438 C 75.582031 29.898438 75.554688 29.867188 75.554688 28.640625 C 75.554688 27.464844 75.609375 27.382812 76.277344 27.382812 C 76.667969 27.382812 77.222656 27.523438 77.527344 27.660156 Z M 77.527344 27.660156 "/>
<path style=" stroke:none;fill-rule:nonzero;fill:rgb(0%,0%,0%);fill-opacity:1;" d="M 80.277344 30.035156 L 80.277344 32.96875 L 81.640625 32.96875 C 82.722656 32.96875 83.109375 32.832031 83.722656 32.242188 C 84.332031 31.628906 84.445312 31.238281 84.445312 29.980469 C 84.445312 27.914062 83.667969 27.101562 81.667969 27.101562 L 80.277344 27.101562 Z M 82.390625 27.660156 C 83.445312 28.082031 83.859375 28.722656 83.890625 29.925781 C 83.890625 31.351562 83 32.410156 81.777344 32.410156 L 80.832031 32.410156 L 80.832031 30.09375 C 80.832031 27.214844 80.917969 27.101562 82.390625 27.660156 Z M 82.390625 27.660156 "/>
<path style=" stroke:none;fill-rule:nonzero;fill:rgb(0%,0%,0%);fill-opacity:1;" d="M 86.109375 30.035156 C 86.109375 31.796875 86.222656 32.96875 86.390625 32.96875 C 86.554688 32.96875 86.667969 31.796875 86.667969 30.035156 C 86.667969 28.277344 86.554688 27.101562 86.390625 27.101562 C 86.222656 27.101562 86.109375 28.277344 86.109375 30.035156 Z M 86.109375 30.035156 "/>
<path style=" stroke:none;fill-rule:nonzero;fill:rgb(0%,0%,0%);fill-opacity:1;" d="M 88.609375 30.035156 C 88.609375 33.585938 89.109375 34.003906 89.222656 30.539062 C 89.304688 28.191406 89.304688 28.164062 89.722656 28.945312 C 90.945312 31.320312 92.027344 32.96875 92.359375 32.96875 C 92.695312 32.96875 92.777344 32.410156 92.777344 30.035156 C 92.777344 26.460938 92.277344 26.070312 92.167969 29.535156 L 92.082031 31.992188 L 90.695312 29.5625 C 89.945312 28.191406 89.140625 27.101562 88.972656 27.101562 C 88.695312 27.101562 88.609375 27.886719 88.609375 30.035156 Z M 88.609375 30.035156 "/>
<path style=" stroke:none;fill-rule:nonzero;fill:rgb(0%,0%,0%);fill-opacity:1;" d="M 7.859375 29.953125 C 8.027344 30.484375 50.582031 30.484375 50.777344 29.953125 C 50.859375 29.703125 46.445312 29.617188 29.304688 29.617188 C 12.167969 29.617188 7.75 29.703125 7.859375 29.953125 Z M 7.859375 29.953125 "/>
<path style=" stroke:none;fill-rule:nonzero;fill:rgb(0%,0%,0%);fill-opacity:1;" d="M 101.195312 29.953125 C 101.359375 30.484375 143.917969 30.484375 144.109375 29.953125 C 144.195312 29.703125 139.777344 29.617188 122.640625 29.617188 C 105.5 29.617188 101.082031 29.703125 101.195312 29.953125 Z M 101.195312 29.953125 "/>
</g>
</svg>
