<?xml version="1.0" standalone="no"?>
<!DOCTYPE svg PUBLIC "-//W3C//DTD SVG 20010904//EN"
 "http://www.w3.org/TR/2001/REC-SVG-20010904/DTD/svg10.dtd">
<svg version="1.0" xmlns="http://www.w3.org/2000/svg"
 width="530.000000pt" height="336.000000pt" viewBox="0 0 530.000000 336.000000"
 preserveAspectRatio="xMidYMid meet">

<g transform="translate(0.000000,336.000000) scale(0.100000,-0.100000)"
fill="#000000" stroke="none">
<path d="M2518 3143 c6 -2 18 -2 25 0 6 3 1 5 -13 5 -14 0 -19 -2 -12 -5z"/>
<path d="M2638 3143 c7 -3 16 -2 19 1 4 3 -2 6 -13 5 -11 0 -14 -3 -6 -6z"/>
<path d="M2680 3146 c0 -2 11 -6 25 -8 13 -3 22 -1 19 3 -5 9 -44 13 -44 5z"/>
<path d="M2421 3131 c-24 -15 35 -25 72 -13 29 10 28 11 -18 6 -36 -3 -44 -2
-30 5 14 7 15 10 5 10 -8 0 -22 -3 -29 -8z"/>
<path d="M2778 3120 c12 -13 25 -18 37 -14 14 6 11 9 -15 20 -42 18 -44 18
-22 -6z"/>
<path d="M2560 3119 c0 -5 5 -7 10 -4 6 3 10 8 10 11 0 2 -4 4 -10 4 -5 0 -10
-5 -10 -11z"/>
<path d="M2643 3123 c9 -2 23 -2 30 0 6 3 -1 5 -18 5 -16 0 -22 -2 -12 -5z"/>
<path d="M2373 3105 c0 -8 9 -15 20 -15 16 0 17 3 7 15 -7 8 -16 15 -20 15 -3
0 -7 -7 -7 -15z"/>
<path d="M2595 3110 c4 -6 -6 -10 -22 -11 -27 0 -27 -1 -6 -11 17 -8 25 -7 37
5 15 14 12 27 -6 27 -5 0 -6 -4 -3 -10z"/>
<path d="M2477 3082 c4 -10 2 -13 -5 -8 -6 3 -13 2 -17 -3 -3 -6 12 -8 42 -5
32 4 60 1 83 -10 19 -8 29 -15 22 -16 -15 0 -6 -20 9 -20 6 0 7 5 4 10 -3 6 1
10 9 10 9 0 16 5 16 11 0 5 -4 8 -9 5 -5 -3 -31 1 -57 10 -100 33 -103 33 -97
16z"/>
<path d="M2810 3090 c-9 -6 -10 -10 -3 -10 6 0 15 5 18 10 8 12 4 12 -15 0z"/>
<path d="M2276 3077 c4 -10 3 -17 -2 -15 -16 4 -59 -14 -75 -32 -15 -15 -15
-18 2 -28 10 -7 36 -11 56 -11 l38 2 -42 6 c-40 7 -70 21 -44 21 7 0 9 5 6 10
-4 7 3 9 22 5 21 -5 24 -4 13 4 -11 8 -11 11 -2 12 34 4 53 7 60 9 4 1 10 2
14 2 3 -1 9 5 12 13 7 19 -8 19 -24 0 -11 -13 -14 -13 -26 2 -13 17 -14 17 -8
0z"/>
<path d="M2846 3075 c4 -8 8 -15 10 -15 2 0 4 7 4 15 0 8 -4 15 -10 15 -5 0
-7 -7 -4 -15z"/>
<path d="M2368 3073 c6 -2 18 -2 25 0 6 3 1 5 -13 5 -14 0 -19 -2 -12 -5z"/>
<path d="M2875 3060 c-3 -6 1 -7 9 -4 18 7 21 14 7 14 -6 0 -13 -4 -16 -10z"/>
<path d="M2925 3060 c3 -5 13 -10 21 -10 8 0 12 5 9 10 -3 6 -13 10 -21 10 -8
0 -12 -4 -9 -10z"/>
<path d="M2330 3051 c-51 -27 -61 -31 -77 -32 -12 0 -13 -2 -5 -6 7 -3 26 0
42 7 22 9 33 9 47 0 15 -10 16 -11 1 -6 -10 3 -20 1 -23 -4 -7 -11 15 -13 39
-4 15 6 15 8 -1 19 -17 13 -16 14 7 24 21 8 22 10 5 10 -11 0 -27 -4 -35 -8z"/>
<path d="M2983 3045 c0 -8 4 -12 9 -9 5 3 6 10 3 15 -9 13 -12 11 -12 -6z"/>
<path d="M2894 3035 c1 -8 7 -20 14 -27 9 -9 13 -7 18 6 4 11 1 22 -7 27 -20
13 -28 11 -25 -6z"/>
<path d="M2674 3014 c-1 -13 2 -21 7 -18 11 6 12 31 2 37 -5 3 -9 -6 -9 -19z"/>
<path d="M2145 3014 c-11 -8 -19 -18 -18 -22 1 -4 -4 -6 -10 -5 -7 1 -23 -7
-37 -18 -14 -11 -19 -17 -11 -13 11 5 13 3 8 -9 -3 -9 -1 -19 6 -23 7 -4 9 -4
5 1 -9 10 40 54 56 51 6 -2 8 -1 4 1 -4 2 -4 11 -1 19 3 7 8 12 12 9 4 -2 8 2
8 10 0 8 -1 15 -1 15 -1 0 -10 -7 -21 -16z"/>
<path d="M3019 3008 c4 -13 13 -23 19 -23 6 0 14 -3 18 -7 13 -14 27 -9 15 5
-6 8 -7 17 -3 22 4 4 -3 3 -14 -3 -18 -10 -21 -9 -20 5 0 9 -5 18 -11 20 -10
3 -11 -2 -4 -19z"/>
<path d="M2630 3016 c0 -2 7 -6 15 -10 8 -3 15 -1 15 4 0 6 -7 10 -15 10 -8 0
-15 -2 -15 -4z"/>
<path d="M2955 3008 c-4 -10 -15 -18 -24 -18 -13 -1 -13 -3 4 -16 11 -8 21
-19 21 -24 1 -6 2 -16 3 -22 1 -8 6 -5 13 6 8 15 7 22 -5 31 -12 8 -13 15 -6
22 6 6 9 17 6 25 -3 10 -7 8 -12 -4z"/>
<path d="M2364 2995 c-18 -14 -18 -14 4 -8 12 3 22 9 22 14 0 12 -3 11 -26 -6z"/>
<path d="M3001 2994 c0 -11 3 -14 6 -6 3 7 2 16 -1 19 -3 4 -6 -2 -5 -13z"/>
<path d="M3088 2989 c10 -14 10 -18 -4 -23 -13 -5 -14 -9 -4 -21 7 -8 16 -12
21 -9 12 7 37 -18 32 -33 -2 -6 0 -14 5 -17 20 -12 2 49 -20 66 -20 16 -20 17
-3 12 11 -4 18 -5 15 -3 -38 32 -53 42 -42 28z"/>
<path d="M2390 2980 c-9 -6 -10 -10 -3 -10 6 0 15 5 18 10 8 12 4 12 -15 0z"/>
<path d="M2429 2973 c-10 -11 -10 -14 -1 -9 6 4 12 3 12 -3 0 -6 7 -7 17 -4
12 5 14 3 8 -8 -4 -8 -5 -11 0 -7 4 4 16 -3 27 -15 11 -12 17 -17 14 -10 -4 6
2 16 11 22 10 6 13 11 8 11 -6 0 -16 -5 -23 -12 -9 -9 -12 -8 -12 5 0 10 -11
19 -27 23 -25 7 -25 8 -8 15 15 6 16 8 4 8 -9 1 -23 -7 -30 -16z"/>
<path d="M2698 2973 c7 -3 16 -2 19 1 4 3 -2 6 -13 5 -11 0 -14 -3 -6 -6z"/>
<path d="M2755 2960 c6 -10 4 -12 -8 -7 -22 8 -21 5 2 -21 20 -24 41 -31 21
-7 -6 8 -9 19 -6 24 4 5 1 13 -5 17 -8 5 -9 3 -4 -6z"/>
<path d="M2989 2938 c-1 -7 -1 -19 0 -27 2 -8 -2 -10 -10 -5 -7 4 -10 3 -6 -4
10 -14 40 -8 45 9 3 11 2 12 -6 1 -8 -11 -10 -11 -15 2 -3 8 -1 16 6 19 8 2 8
5 -1 11 -7 4 -13 2 -13 -6z"/>
<path d="M2036 2924 c-3 -9 -11 -12 -18 -8 -11 6 -11 4 0 -7 10 -11 15 -11 28
3 10 9 12 18 6 22 -5 3 -13 -1 -16 -10z"/>
<path d="M2540 2931 c0 -7 -5 -9 -11 -5 -7 4 -10 -1 -7 -12 2 -11 12 -19 23
-19 11 0 31 -6 45 -14 l25 -14 -25 25 c-14 14 -29 21 -34 16 -17 -14 -29 -9
-16 7 7 9 10 18 6 22 -3 3 -6 1 -6 -6z"/>
<path d="M3164 2923 c11 -13 15 -23 9 -23 -5 0 -10 -7 -10 -15 0 -8 4 -12 8
-9 4 2 9 0 11 -5 1 -5 8 -3 15 4 9 10 5 19 -20 41 -19 17 -24 20 -13 7z"/>
<path d="M1986 2892 c-2 -4 0 -14 5 -22 8 -12 12 -12 16 -2 2 6 10 9 15 6 7
-4 8 -2 4 4 -4 6 -14 8 -23 5 -11 -4 -14 -3 -9 5 4 7 5 12 2 12 -3 0 -7 -4
-10 -8z"/>
<path d="M3013 2883 c-7 -2 -13 -9 -13 -14 0 -6 5 -7 12 -3 7 5 9 1 6 -13 -3
-11 1 -28 9 -39 14 -18 15 -18 8 4 -4 13 -1 29 6 38 10 12 10 15 -2 12 -8 -2
-13 3 -11 10 1 6 1 12 0 11 -2 0 -9 -3 -15 -6z"/>
<path d="M1965 2848 c-6 -13 -16 -22 -23 -21 -7 2 -9 -4 -5 -14 4 -11 3 -14
-5 -9 -18 11 -14 0 6 -15 9 -7 14 -9 10 -5 -4 5 2 22 13 38 11 15 19 33 17 38
-2 6 -8 0 -13 -12z"/>
<path d="M2593 2847 c6 -15 22 -30 35 -33 21 -6 22 -7 5 -21 -10 -8 -12 -11
-4 -7 9 4 19 0 28 -11 7 -11 13 -14 13 -8 0 7 -5 15 -10 18 -6 4 -8 10 -5 14
2 5 -2 17 -10 27 -11 15 -14 16 -15 4 0 -9 -9 -4 -25 15 l-24 30 12 -28z"/>
<path d="M3199 2853 c-13 -16 -12 -17 4 -4 16 13 21 21 13 21 -2 0 -10 -8 -17
-17z"/>
<path d="M2390 2845 c0 -8 4 -15 10 -15 5 0 7 7 4 15 -4 8 -8 15 -10 15 -2 0
-4 -7 -4 -15z"/>
<path d="M3216 2841 c-4 -6 -2 -20 4 -31 11 -21 26 -29 15 -7 -4 6 0 4 9 -7
15 -18 15 -18 14 1 -2 25 -34 58 -42 44z"/>
<path d="M2360 2825 c-7 -9 -8 -15 -2 -15 5 0 12 7 16 15 3 8 4 15 2 15 -2 0
-9 -7 -16 -15z"/>
<path d="M2825 2830 c3 -5 8 -10 11 -10 2 0 4 5 4 10 0 6 -5 10 -11 10 -5 0
-7 -4 -4 -10z"/>
<path d="M3048 2810 c2 -16 9 -30 14 -30 6 0 7 -8 4 -17 -5 -15 -3 -14 9 2 15
18 14 20 -1 24 -14 2 -14 5 -3 12 10 6 10 9 2 9 -7 0 -13 7 -13 15 0 8 -4 15
-8 15 -5 0 -7 -13 -4 -30z"/>
<path d="M2117 2797 c-21 -32 -41 -73 -32 -65 5 4 14 3 22 -3 8 -8 13 -8 13
-1 0 6 -5 12 -11 14 -6 2 -7 11 -3 22 7 19 8 19 15 0 7 -17 8 -17 8 -1 1 12 6
16 14 11 10 -6 10 -4 0 7 -18 18 -16 30 2 23 8 -4 15 -4 15 -1 0 17 -31 12
-43 -6z"/>
<path d="M2372 2804 c-7 -8 -17 -12 -22 -9 -10 6 -22 -23 -14 -36 3 -5 10 -9
15 -9 6 0 7 5 4 10 -3 6 -1 10 6 10 7 0 9 3 6 7 -4 3 1 12 11 19 9 7 15 15 12
17 -3 3 -11 -1 -18 -9z"/>
<path d="M2810 2811 c0 -6 4 -13 10 -16 6 -3 7 1 4 9 -7 18 -14 21 -14 7z"/>
<path d="M1904 2777 c-9 -24 6 -44 18 -22 7 11 6 21 -1 28 -7 7 -12 6 -17 -6z"/>
<path d="M3277 2783 c-4 -3 -7 -11 -7 -17 0 -6 5 -5 12 2 6 6 9 14 7 17 -3 3
-9 2 -12 -2z"/>
<path d="M2821 2777 c2 -2 12 -9 22 -16 14 -11 17 -11 17 1 0 7 -10 14 -21 15
-12 1 -20 1 -18 0z"/>
<path d="M2881 2750 c14 -31 19 -36 19 -24 0 6 -7 19 -16 30 -14 18 -14 18 -3
-6z"/>
<path d="M3086 2754 c-3 -9 -4 -19 -1 -22 3 -3 5 1 5 9 0 11 2 11 10 -1 5 -8
10 -10 10 -5 0 6 -4 16 -9 23 -6 11 -10 10 -15 -4z"/>
<path d="M2310 2751 c0 -5 7 -12 16 -15 14 -5 15 -4 4 9 -14 17 -20 19 -20 6z"/>
<path d="M2507 2718 c-12 -30 -14 -45 -6 -52 7 -8 8 -6 4 6 -4 11 -2 20 6 23
11 4 26 65 16 65 -1 0 -10 -19 -20 -42z"/>
<path d="M1889 2733 c8 -16 8 -22 -1 -25 -8 -3 -9 -6 -1 -11 18 -11 23 19 7
40 -14 17 -14 17 -5 -4z"/>
<path d="M3275 2740 c-8 -12 22 -70 36 -70 6 0 9 -7 6 -15 -4 -8 -2 -17 4 -20
5 -4 9 -3 8 2 -3 20 2 34 11 28 13 -8 13 5 0 25 -8 13 -10 13 -10 -2 0 -11 -5
-15 -15 -12 -17 7 -21 44 -4 44 6 0 4 7 -5 15 -17 18 -23 18 -31 5z m20 -10
c3 -5 1 -10 -4 -10 -6 0 -11 5 -11 10 0 6 2 10 4 10 3 0 8 -4 11 -10z"/>
<path d="M2660 2730 c0 -5 5 -10 11 -10 6 0 8 -7 5 -16 -4 -10 -2 -13 6 -8 8
5 9 1 4 -12 -4 -10 -4 -15 1 -11 4 5 8 22 9 39 1 21 -1 26 -7 17 -6 -10 -9
-11 -9 -1 0 6 -4 12 -10 12 -5 0 -10 -4 -10 -10z"/>
<path d="M2299 2728 c-9 -32 -7 -47 6 -41 11 4 13 9 5 18 -5 6 -7 15 -3 18 3
4 3 7 0 7 -4 0 -7 -1 -8 -2z"/>
<path d="M3096 2708 c3 -5 10 -5 16 -2 6 4 8 -1 3 -16 -5 -14 -3 -20 3 -16 6
3 12 3 15 -1 2 -5 2 -2 0 5 -1 8 -3 20 -3 27 0 8 -9 13 -19 12 -11 0 -17 -5
-15 -9z"/>
<path d="M2887 2704 c-11 -11 4 -33 19 -27 8 3 14 1 14 -5 0 -6 -5 -12 -12
-14 -9 -3 -9 -6 0 -12 7 -4 12 -2 12 4 0 6 5 8 11 4 8 -4 8 -1 1 13 -14 25
-37 45 -45 37z"/>
<path d="M2706 2675 c-9 -26 -7 -32 5 -12 6 10 9 21 6 23 -2 3 -7 -2 -11 -11z"/>
<path d="M2277 2654 c3 -9 -2 -11 -17 -7 -19 5 -21 3 -15 -17 5 -15 4 -20 -4
-16 -14 9 -14 -4 -1 -24 8 -13 10 -12 10 3 0 11 5 15 11 11 8 -4 9 1 4 16 -5
15 -4 20 3 16 6 -4 15 2 21 12 7 14 6 19 -4 19 -7 0 -11 -6 -8 -13z"/>
<path d="M3150 2663 c0 -6 -3 -18 -6 -27 -3 -9 -1 -16 6 -16 6 0 9 4 6 9 -4 5
-2 11 4 13 6 2 6 8 0 18 -6 9 -10 10 -10 3z"/>
<path d="M1856 2643 c-6 -15 -8 -15 -16 -3 -8 13 -10 13 -10 -1 0 -26 12 -30
28 -8 8 11 12 22 9 25 -2 3 -8 -3 -11 -13z"/>
<path d="M2050 2650 c0 -5 5 -10 11 -10 5 0 7 5 4 10 -3 6 -8 10 -11 10 -2 0
-4 -4 -4 -10z"/>
<path d="M2473 2641 c0 -11 5 -17 9 -15 11 7 10 34 -1 34 -6 0 -9 -9 -8 -19z"/>
<path d="M2733 2633 c-10 -3 -9 -8 3 -20 12 -12 18 -13 27 -4 7 7 8 12 2 11
-22 -5 -29 1 -15 10 16 10 4 12 -17 3z"/>
<path d="M2024 2618 c-3 -5 -10 -6 -15 -3 -5 3 -6 -1 -2 -11 5 -15 7 -15 16 1
7 13 11 14 17 5 5 -9 9 -8 13 2 5 16 -20 21 -29 6z"/>
<path d="M1817 2590 c3 -11 10 -23 16 -27 7 -4 8 0 4 11 -4 10 -7 22 -7 27 0
5 -4 9 -9 9 -5 0 -7 -9 -4 -20z"/>
<path d="M2446 2585 c-9 -26 -7 -32 5 -12 6 10 9 21 6 23 -2 3 -7 -2 -11 -11z"/>
<path d="M2934 2589 c-4 -7 -3 -10 3 -6 6 4 18 -9 27 -28 9 -19 18 -35 19 -35
1 0 2 13 2 29 0 16 -2 27 -4 25 -2 -2 -12 3 -22 12 -13 12 -19 12 -25 3z"/>
<path d="M1991 2583 c-1 -17 16 -25 25 -12 4 7 3 9 -4 5 -5 -3 -13 0 -15 6 -4
9 -6 10 -6 1z"/>
<path d="M3363 2577 c3 -9 2 -17 -3 -17 -6 0 -9 -12 -9 -27 1 -21 2 -23 6 -8
3 11 10 25 18 30 10 8 9 13 -3 25 -14 13 -15 12 -9 -3z"/>
<path d="M2409 2578 c-1 -2 -2 -16 -4 -33 -2 -16 -6 -39 -9 -50 -4 -11 2 -4
12 15 13 22 17 39 11 46 -5 6 -6 14 -2 17 3 4 3 7 0 7 -4 0 -8 -1 -8 -2z"/>
<path d="M2756 2567 c3 -10 9 -15 12 -12 3 3 0 11 -7 18 -10 9 -11 8 -5 -6z"/>
<path d="M3175 2569 c-11 -17 0 -20 21 -4 17 13 17 14 2 15 -9 0 -20 -5 -23
-11z"/>
<path d="M1973 2555 c0 -8 3 -13 5 -10 3 3 12 -1 21 -7 10 -8 9 -4 -3 10 -23
26 -23 26 -23 7z"/>
<path d="M2203 2558 c-20 -26 -26 -41 -15 -34 7 4 12 2 12 -3 0 -10 -14 -15
-32 -12 -4 0 -4 -7 -1 -16 4 -10 2 -14 -5 -9 -6 3 -14 1 -18 -5 -5 -8 -3 -9 6
-4 9 6 10 2 5 -16 -13 -41 -27 -58 -21 -24 l6 30 -15 -25 c-8 -14 -20 -43 -26
-64 -8 -30 -13 -36 -21 -25 -7 10 -8 8 -3 -8 5 -17 3 -21 -7 -18 -7 3 -19 -4
-26 -16 -8 -12 -9 -18 -3 -14 17 10 13 -11 -4 -25 -18 -15 -20 -43 -2 -37 6 2
12 12 12 23 1 10 7 18 14 16 7 -1 10 2 6 8 -3 5 -1 10 5 10 6 0 8 5 5 10 -4 6
-11 7 -17 4 -7 -4 -8 -2 -4 5 4 6 11 9 16 6 8 -5 100 131 113 168 4 9 12 17
18 17 7 0 9 9 5 24 -4 15 -1 26 7 29 6 2 9 7 6 11 -3 4 -11 1 -16 -6z"/>
<path d="M1800 2540 c-8 -15 -7 -26 1 -42 9 -16 14 -19 17 -9 2 7 -1 17 -8 21
-7 4 -9 13 -5 20 6 9 9 9 16 -1 7 -11 9 -10 9 3 0 26 -18 31 -30 8z"/>
<path d="M2779 2555 c0 -6 -2 -20 -3 -33 -4 -33 11 -37 18 -5 4 14 2 31 -3 36
-6 6 -11 7 -12 2z"/>
<path d="M3197 2553 c-11 -11 -8 -25 4 -17 8 4 9 -1 4 -16 -6 -20 -5 -21 8 -9
10 10 12 19 6 32 -11 19 -13 20 -22 10z"/>
<path d="M3371 2517 c-12 -34 -10 -71 2 -84 4 -4 6 10 3 30 -2 20 -1 37 2 37
4 0 8 11 8 25 2 34 -2 31 -15 -8z"/>
<path d="M3000 2531 c0 -6 4 -13 10 -16 6 -3 7 1 4 9 -7 18 -14 21 -14 7z"/>
<path d="M1957 2506 c-3 -8 0 -17 7 -19 10 -4 12 1 9 14 -6 23 -9 24 -16 5z"/>
<path d="M3219 2494 c-11 -14 -11 -18 2 -28 9 -6 19 -21 23 -34 10 -29 21 -28
24 3 2 24 -28 52 -42 38 -3 -3 -6 -2 -6 3 0 6 5 15 12 22 7 7 9 12 6 12 -3 0
-12 -7 -19 -16z m38 -56 c-3 -8 -6 -5 -6 6 -1 11 2 17 5 13 3 -3 4 -12 1 -19z"/>
<path d="M1927 2480 c-3 -11 -1 -18 3 -15 5 3 11 -5 13 -17 l4 -23 2 23 c1 16
5 21 14 16 6 -4 3 2 -7 14 -23 27 -22 27 -29 2z"/>
<path d="M2996 2492 c7 -4 13 -16 15 -27 5 -22 30 -27 37 -7 2 7 -2 10 -11 6
-9 -3 -16 3 -20 15 -3 12 -11 21 -19 21 -9 0 -10 -3 -2 -8z"/>
<path d="M2369 2476 c8 -10 9 -16 1 -21 -5 -3 -10 -1 -10 6 0 7 -2 10 -5 7 -3
-3 -3 -13 1 -22 6 -15 7 -15 19 1 14 18 9 43 -7 43 -6 0 -6 -6 1 -14z"/>
<path d="M2808 2468 c2 -10 8 -15 13 -12 14 8 11 31 -5 31 -8 0 -11 -8 -8 -19z"/>
<path d="M3392 2485 c0 -5 6 -26 13 -45 7 -19 14 -28 14 -20 0 8 -6 29 -14 45
-7 17 -13 26 -13 20z"/>
<path d="M1800 2460 c0 -5 5 -10 10 -10 6 0 10 5 10 10 0 6 -4 10 -10 10 -5 0
-10 -4 -10 -10z"/>
<path d="M2835 2440 c-3 -11 -2 -27 3 -35 7 -14 10 -14 21 -2 9 12 9 17 0 23
-8 4 -9 3 -5 -4 4 -7 2 -12 -4 -12 -8 0 -10 9 -6 25 8 30 0 34 -9 5z"/>
<path d="M1912 2430 c-15 -25 -15 -30 1 -30 6 0 13 11 13 25 2 30 2 30 -14 5z"/>
<path d="M1771 2424 c0 -11 3 -14 6 -6 3 7 2 16 -1 19 -3 4 -6 -2 -5 -13z"/>
<path d="M2307 2408 c-14 -25 -15 -29 -2 -18 12 10 15 10 15 -1 1 -8 8 -1 16
14 9 16 13 31 10 35 -3 3 -6 -1 -6 -9 0 -10 -2 -11 -8 -2 -5 8 -13 1 -25 -19z"/>
<path d="M3045 2429 c-4 -6 -5 -12 -2 -15 2 -3 7 2 10 11 7 17 1 20 -8 4z"/>
<path d="M3065 2410 c-3 -5 -1 -10 4 -10 6 0 11 5 11 10 0 6 -2 10 -4 10 -3 0
-8 -4 -11 -10z"/>
<path d="M3386 2395 c4 -8 8 -15 10 -15 2 0 4 7 4 15 0 8 -4 15 -10 15 -5 0
-7 -7 -4 -15z"/>
<path d="M1780 2391 c0 -6 5 -13 10 -16 6 -3 10 1 10 9 0 9 -4 16 -10 16 -5 0
-10 -4 -10 -9z"/>
<path d="M1875 2391 c-3 -6 -5 -11 -3 -12 27 -6 38 -5 35 4 -5 15 -24 20 -32
8z"/>
<path d="M2860 2379 c-12 -22 -12 -23 3 -10 18 15 23 3 7 -17 -5 -7 -3 -6 6 2
12 10 14 19 6 32 -9 16 -11 15 -22 -7z"/>
<path d="M3073 2361 c0 -27 2 -29 14 -13 13 16 14 15 8 -5 -3 -12 -2 -24 3
-27 5 -3 8 11 6 30 -2 35 -14 61 -14 33 0 -11 -2 -11 -8 -1 -6 8 -9 2 -9 -17z"/>
<path d="M2290 2355 c-7 -8 -17 -12 -24 -8 -6 3 -6 0 2 -8 10 -11 15 -10 29 4
9 9 14 19 11 22 -3 3 -11 -1 -18 -10z"/>
<path d="M3361 2355 c0 -12 -7 -27 -13 -34 -11 -10 -9 -11 7 -5 16 6 18 5 8
-7 -7 -7 -13 -21 -13 -31 0 -10 -6 -21 -14 -24 -11 -4 -12 -13 -6 -35 5 -17 5
-29 -1 -29 -5 0 -9 9 -9 19 0 10 -6 21 -14 24 -11 5 -11 1 1 -24 8 -16 21 -29
29 -29 19 0 18 -15 -3 -48 -16 -25 -16 -26 -1 -14 24 19 31 48 18 73 -12 21
-6 42 32 126 6 11 8 27 5 35 -3 7 -6 2 -7 -12 -2 -24 -3 -23 -10 5 -5 21 -8
24 -9 10z"/>
<path d="M1854 2341 c-1 -9 -4 -25 -8 -36 -6 -14 -5 -16 2 -6 5 7 12 9 14 5 3
-5 3 -3 2 4 -5 20 8 46 16 32 5 -9 9 -8 13 2 3 9 -3 14 -17 14 -13 0 -22 -6
-22 -15z"/>
<path d="M2903 2343 c0 -11 7 -20 14 -20 10 0 10 4 1 16 -7 9 -13 18 -15 20
-1 2 -1 -5 0 -16z"/>
<path d="M1782 2293 c-1 -26 3 -50 8 -53 4 -3 10 -38 12 -78 3 -73 12 -93 20
-47 3 14 2 25 -2 25 -4 0 -11 45 -15 100 -7 103 -22 136 -23 53z"/>
<path d="M2246 2313 c-6 -14 -5 -15 5 -6 7 7 10 15 7 18 -3 3 -9 -2 -12 -12z"/>
<path d="M3406 2315 c4 -8 8 -15 10 -15 2 0 4 7 4 15 0 8 -4 15 -10 15 -5 0
-7 -7 -4 -15z"/>
<path d="M2925 2299 c-4 -6 -5 -12 -2 -15 2 -3 7 2 10 11 7 17 1 20 -8 4z"/>
<path d="M2248 2275 c-6 -14 -17 -24 -23 -21 -6 2 -12 -2 -12 -10 0 -21 31
-12 38 11 3 11 11 19 17 18 6 -2 9 4 6 12 -8 21 -13 19 -26 -10z"/>
<path d="M3117 2283 c-4 -3 -7 -11 -7 -17 0 -6 5 -5 12 2 6 6 9 14 7 17 -3 3
-9 2 -12 -2z"/>
<path d="M2930 2242 c0 -11 10 -27 23 -38 22 -19 22 -19 5 2 -24 28 -23 41 2
19 11 -10 20 -15 20 -12 0 8 -38 47 -45 47 -3 0 -5 -8 -5 -18z"/>
<path d="M3361 2224 c0 -11 3 -14 6 -6 3 7 2 16 -1 19 -3 4 -6 -2 -5 -13z"/>
<path d="M1830 2210 c0 -5 5 -10 10 -10 6 0 10 5 10 10 0 6 -4 10 -10 10 -5 0
-10 -4 -10 -10z"/>
<path d="M3253 2197 l-18 -22 23 19 c12 11 22 14 22 8 0 -7 5 -12 10 -12 15 0
12 17 -4 23 -8 3 -22 -4 -33 -16z"/>
<path d="M2186 2194 c-6 -15 -4 -15 10 -3 15 12 16 11 10 -11 -6 -21 -5 -22 4
-7 11 17 6 37 -10 37 -4 0 -11 -7 -14 -16z"/>
<path d="M2000 2191 c0 -6 4 -13 10 -16 6 -3 7 1 4 9 -7 18 -14 21 -14 7z"/>
<path d="M3384 2176 c-12 -13 -7 -36 8 -36 6 0 8 6 5 14 -3 8 -1 16 6 19 6 2
7 6 2 9 -6 3 -15 1 -21 -6z"/>
<path d="M1821 2164 c0 -11 3 -14 6 -6 3 7 2 16 -1 19 -3 4 -6 -2 -5 -13z"/>
<path d="M2165 2162 c-6 -4 -11 -14 -11 -22 -1 -8 -5 -24 -9 -35 -7 -20 -6
-20 9 -1 9 11 16 29 16 40 0 17 2 18 10 6 6 -9 10 -10 10 -3 0 16 -13 23 -25
15z"/>
<path d="M1985 2137 c-4 -10 -5 -21 -1 -24 10 -10 18 4 13 24 -4 17 -4 17 -12
0z"/>
<path d="M1961 2124 c0 -11 3 -14 6 -6 3 7 2 16 -1 19 -3 4 -6 -2 -5 -13z"/>
<path d="M3150 2125 c-14 -8 -38 -14 -54 -15 -40 0 -30 -6 24 -14 31 -4 40 -3
30 4 -12 8 -11 10 8 10 13 0 21 4 18 9 -4 5 0 12 6 14 7 3 9 6 3 6 -5 0 -21
-6 -35 -14z"/>
<path d="M3200 2131 c0 -6 4 -13 10 -16 6 -3 7 1 4 9 -7 18 -14 21 -14 7z"/>
<path d="M3363 2125 c0 -8 4 -15 9 -15 4 0 8 4 8 9 0 6 -4 12 -8 15 -5 3 -9
-1 -9 -9z"/>
<path d="M1841 2114 c0 -11 3 -14 6 -6 3 7 2 16 -1 19 -3 4 -6 -2 -5 -13z"/>
<path d="M1970 2084 c0 -10 5 -26 10 -34 8 -11 9 -7 4 15 -8 37 -14 45 -14 19z"/>
<path d="M3020 2091 c0 -13 27 -21 47 -14 15 6 15 7 -3 14 -27 11 -44 11 -44
0z"/>
<path d="M3325 2090 c-3 -5 -2 -10 4 -10 5 0 13 5 16 10 3 6 2 10 -4 10 -5 0
-13 -4 -16 -10z"/>
<path d="M2285 2080 c4 -6 11 -8 16 -5 14 9 11 15 -7 15 -8 0 -12 -5 -9 -10z"/>
<path d="M2378 2083 c7 -3 16 -2 19 1 4 3 -2 6 -13 5 -11 0 -14 -3 -6 -6z"/>
<path d="M2908 2083 c6 -2 18 -2 25 0 6 3 1 5 -13 5 -14 0 -19 -2 -12 -5z"/>
<path d="M1826 2071 c-5 -7 -5 -15 -2 -18 3 -4 6 0 7 8 0 8 7 -2 14 -21 10
-25 14 -29 14 -14 1 28 -23 61 -33 45z"/>
<path d="M1950 2056 c0 -14 4 -27 8 -30 5 -3 6 8 4 25 -5 35 -12 38 -12 5z"/>
<path d="M2125 2060 c-3 -11 -10 -20 -14 -20 -8 0 -4 -70 4 -79 3 -2 5 9 5 25
0 19 3 25 8 16 5 -8 9 5 9 33 0 50 -3 55 -12 25z"/>
<path d="M2316 2071 c-4 -5 3 -7 14 -4 23 6 26 13 6 13 -8 0 -17 -4 -20 -9z"/>
<path d="M2808 2073 c7 -3 16 -2 19 1 4 3 -2 6 -13 5 -11 0 -14 -3 -6 -6z"/>
<path d="M2930 2070 l-55 -7 50 -1 c28 -1 57 3 65 8 8 5 11 9 5 8 -5 -1 -35
-4 -65 -8z"/>
<path d="M3050 2060 c-18 -12 -2 -12 25 0 13 6 15 9 5 9 -8 0 -22 -4 -30 -9z"/>
<path d="M3297 2063 c-4 -3 -7 -15 -7 -25 0 -10 -4 -18 -8 -18 -4 0 -8 -10 -9
-22 0 -13 1 -17 4 -10 3 6 9 12 14 12 6 0 7 -4 4 -10 -3 -5 -1 -19 5 -31 15
-27 2 -39 -16 -15 -8 11 -14 15 -14 9 0 -6 7 -17 16 -24 14 -11 18 -10 30 6 8
10 14 27 14 38 0 10 4 16 8 13 4 -3 3 15 -2 40 -10 41 -23 54 -39 37z m18 -34
c-5 -16 -4 -19 6 -14 9 6 11 2 6 -16 -4 -13 -7 -31 -7 -39 -1 -12 -3 -11 -11
3 -5 9 -8 21 -4 26 3 5 1 12 -4 15 -11 7 -2 46 11 46 5 0 6 -10 3 -21z"/>
<path d="M3350 2059 c0 -5 5 -7 10 -4 6 3 10 8 10 11 0 2 -4 4 -10 4 -5 0 -10
-5 -10 -11z"/>
<path d="M2998 2053 c6 -2 18 -2 25 0 6 3 1 5 -13 5 -14 0 -19 -2 -12 -5z"/>
<path d="M3340 2033 c0 -4 5 -15 10 -23 8 -13 10 -13 10 2 0 9 -4 20 -10 23
-5 3 -10 3 -10 -2z"/>
<path d="M1855 1991 c-7 -12 26 -65 43 -69 10 -2 11 4 7 19 -4 13 -3 19 3 15
12 -7 23 -46 13 -46 -4 0 -6 -12 -5 -27 2 -43 3 -47 11 -40 3 4 12 -1 19 -11
12 -16 13 -16 19 1 4 9 2 23 -3 30 -6 7 -14 32 -18 54 -7 43 -39 67 -51 37 -4
-12 -8 -11 -20 6 -8 11 -11 25 -8 30 3 6 4 10 1 10 -3 0 -7 -4 -11 -9z m75
-118 c-11 -17 -11 -17 -6 0 3 10 6 24 7 30 0 9 2 9 5 0 3 -7 0 -20 -6 -30z"/>
<path d="M1951 1984 c0 -11 3 -14 6 -6 3 7 2 16 -1 19 -3 4 -6 -2 -5 -13z"/>
<path d="M3206 1975 c-5 -13 -2 -14 17 -4 32 17 33 19 10 19 -12 0 -23 -7 -27
-15z"/>
<path d="M3220 1950 c0 -5 5 -10 10 -10 6 0 10 5 10 10 0 6 -4 10 -10 10 -5 0
-10 -4 -10 -10z"/>
<path d="M1970 1929 c0 -11 5 -17 10 -14 6 3 10 13 10 21 0 8 -4 14 -10 14 -5
0 -10 -9 -10 -21z"/>
<path d="M2121 1938 c-1 -10 -5 -18 -11 -18 -5 0 -10 -5 -10 -12 0 -8 6 -7 16
4 9 9 14 22 11 30 -4 9 -6 7 -6 -4z"/>
<path d="M3178 1943 c-10 -2 -18 -10 -18 -16 0 -7 -4 -6 -10 3 -6 9 -10 10
-10 3 0 -21 15 -22 40 -2 14 10 23 18 20 18 -3 -1 -13 -3 -22 -6z"/>
<path d="M2370 1908 c0 -5 11 -8 25 -8 14 0 25 4 25 9 0 5 -11 8 -25 7 -14 0
-25 -4 -25 -8z"/>
<path d="M3067 1909 c7 -7 15 -10 18 -7 3 3 -2 9 -12 12 -14 6 -15 5 -6 -5z"/>
<path d="M3246 1905 c-3 -8 -2 -15 2 -16 4 0 15 -2 25 -4 20 -4 22 6 5 23 -16
16 -25 15 -32 -3z"/>
<path d="M2254 1899 c-3 -5 9 -9 25 -9 17 0 31 2 31 4 0 8 -51 13 -56 5z"/>
<path d="M3043 1897 c0 -7 12 -13 26 -14 14 -1 19 1 11 4 -8 3 -20 10 -26 14
-6 5 -11 4 -11 -4z"/>
<path d="M1980 1880 c0 -11 4 -20 9 -20 5 0 7 9 4 20 -3 11 -7 20 -9 20 -2 0
-4 -9 -4 -20z"/>
<path d="M2115 1863 c-4 -21 -10 -48 -15 -60 -5 -13 -6 -32 -2 -44 8 -20 9
-19 21 7 10 22 10 29 -1 35 -7 5 -8 9 -3 9 6 0 12 20 13 45 2 55 -5 59 -13 8z"/>
<path d="M2453 1893 c15 -2 37 -2 50 0 12 2 0 4 -28 4 -27 0 -38 -2 -22 -4z"/>
<path d="M2598 1893 c12 -2 30 -2 40 0 9 3 -1 5 -23 4 -22 0 -30 -2 -17 -4z"/>
<path d="M2830 1890 c0 -5 5 -10 11 -10 5 0 7 5 4 10 -3 6 -8 10 -11 10 -2 0
-4 -4 -4 -10z"/>
<path d="M2975 1890 c-13 -5 -14 -9 -5 -9 8 0 24 4 35 9 13 5 14 9 5 9 -8 0
-24 -4 -35 -9z"/>
<path d="M2698 1883 c7 -3 16 -2 19 1 4 3 -2 6 -13 5 -11 0 -14 -3 -6 -6z"/>
<path d="M2091 1864 c0 -11 3 -14 6 -6 3 7 2 16 -1 19 -3 4 -6 -2 -5 -13z"/>
<path d="M2448 1873 c6 -2 18 -2 25 0 6 3 1 5 -13 5 -14 0 -19 -2 -12 -5z"/>
<path d="M2603 1873 c9 -2 23 -2 30 0 6 3 -1 5 -18 5 -16 0 -22 -2 -12 -5z"/>
<path d="M1996 1834 c-9 -8 -16 -12 -16 -7 0 4 -5 0 -11 -11 -9 -14 -7 -22 7
-35 17 -15 17 -15 5 2 -18 23 -8 32 13 11 9 -9 20 -13 24 -10 3 4 0 11 -8 16
-12 8 -13 13 -2 30 15 24 9 26 -12 4z"/>
<path d="M3214 1825 c-10 -14 -24 -23 -31 -21 -8 3 -10 -1 -6 -11 5 -12 2 -15
-10 -10 -21 8 -21 3 -1 -18 15 -15 14 -16 -8 -10 -20 5 -26 2 -31 -14 -3 -12
-1 -21 4 -21 5 0 9 5 9 10 0 6 12 10 26 10 20 0 24 4 19 19 -6 20 18 46 34 36
7 -4 8 1 4 11 -5 13 -3 16 9 11 10 -3 15 -1 14 8 -4 26 -13 26 -32 0z"/>
<path d="M2020 1819 c0 -5 5 -7 10 -4 6 3 10 8 10 11 0 2 -4 4 -10 4 -5 0 -10
-5 -10 -11z"/>
<path d="M2066 1775 c-9 -26 -7 -32 5 -12 6 10 9 21 6 23 -2 3 -7 -2 -11 -11z"/>
<path d="M2041 1752 c-1 -16 -5 -21 -13 -16 -7 4 -2 -5 11 -19 25 -28 42 -38
22 -13 -9 11 -9 15 1 19 9 4 10 8 2 14 -6 4 -14 15 -17 23 -3 10 -6 7 -6 -8z"/>
<path d="M2125 1761 c-3 -5 -1 -12 5 -16 5 -3 10 1 10 9 0 18 -6 21 -15 7z"/>
<path d="M2141 1714 c-2 -31 -30 -39 -40 -12 -4 12 -11 17 -14 11 -4 -6 2 -18
13 -28 11 -10 17 -22 13 -28 -3 -6 -1 -7 5 -3 6 4 22 1 34 -5 21 -11 22 -11 9
4 -11 14 -11 17 0 17 10 0 11 3 3 8 -7 4 -14 18 -17 32 -4 21 -4 22 -6 4z"/>
<path d="M2166 1717 c3 -10 9 -15 12 -12 3 3 0 11 -7 18 -10 9 -11 8 -5 -6z"/>
<path d="M3076 1723 c-15 -4 -16 -7 -5 -14 13 -9 -27 -6 -89 7 -19 4 -21 2
-11 -8 7 -8 28 -12 48 -11 30 3 32 1 16 -7 -16 -8 -13 -9 14 -4 22 4 31 3 27
-4 -3 -6 -3 -13 2 -16 4 -2 9 7 10 22 1 14 8 29 15 34 13 8 4 9 -27 1z"/>
<path d="M2863 1713 c15 -2 39 -2 55 0 15 2 2 4 -28 4 -30 0 -43 -2 -27 -4z"/>
<path d="M2373 1697 c0 -21 13 -24 62 -16 l40 7 -40 -2 c-24 0 -44 5 -51 13
-9 11 -11 11 -11 -2z"/>
<path d="M2768 1703 c7 -3 16 -2 19 1 4 3 -2 6 -13 5 -11 0 -14 -3 -6 -6z"/>
<path d="M3105 1699 c-10 -15 3 -25 16 -12 7 7 7 13 1 17 -6 3 -14 1 -17 -5z"/>
<path d="M2853 1693 c9 -2 23 -2 30 0 6 3 -1 5 -18 5 -16 0 -22 -2 -12 -5z"/>
<path d="M2563 1683 c15 -2 37 -2 50 0 12 2 0 4 -28 4 -27 0 -38 -2 -22 -4z"/>
<path d="M2678 1683 c23 -2 61 -2 85 0 23 2 4 4 -43 4 -47 0 -66 -2 -42 -4z"/>
<path d="M2918 1683 c7 -3 16 -2 19 1 4 3 -2 6 -13 5 -11 0 -14 -3 -6 -6z"/>
<path d="M2956 1644 c-4 -11 -2 -12 13 -4 23 12 72 -2 52 -14 -6 -4 -18 -3
-25 3 -10 8 -17 7 -26 -4 -8 -10 -21 -13 -39 -8 -35 8 -21 -5 17 -16 26 -8 30
-7 25 6 -5 13 -1 15 16 10 24 -6 61 11 61 28 0 17 -88 16 -94 -1z"/>
<path d="M2180 1640 c0 -5 5 -10 10 -10 6 0 10 5 10 10 0 6 -4 10 -10 10 -5 0
-10 -4 -10 -10z"/>
<path d="M2200 1619 c-12 -8 -10 -9 8 -4 23 7 31 -9 10 -19 -7 -3 1 -4 17 0
35 6 52 19 27 20 -9 1 -24 4 -32 7 -8 4 -22 2 -30 -4z"/>
<path d="M2285 1601 c-3 -6 11 -13 32 -17 l38 -7 -30 -14 c-30 -14 -6 -12 29
3 13 5 17 4 12 -4 -7 -11 31 -28 41 -18 4 3 -1 6 -10 6 -9 0 -17 4 -17 10 0 5
-19 19 -42 30 -49 23 -45 23 -53 11z"/>
<path d="M2860 1590 c0 -5 -8 -10 -17 -11 -13 0 -11 -3 6 -10 13 -5 26 -7 29
-4 3 3 0 5 -6 5 -6 0 -9 7 -6 15 4 8 3 15 0 15 -3 0 -6 -4 -6 -10z"/>
<path d="M2892 1593 c-13 -5 -7 -23 9 -23 6 0 7 5 3 11 -4 8 1 9 16 4 15 -5
20 -4 16 4 -7 11 -22 13 -44 4z"/>
<path d="M2795 1570 c-3 -5 -1 -10 4 -10 6 0 11 5 11 10 0 6 -2 10 -4 10 -3 0
-8 -4 -11 -10z"/>
<path d="M2418 1563 c7 -3 16 -2 19 1 4 3 -2 6 -13 5 -11 0 -14 -3 -6 -6z"/>
<path d="M2475 1550 c3 -5 -9 -14 -27 -19 -20 -5 -25 -9 -13 -10 11 0 31 6 44
13 20 11 21 14 7 19 -10 4 -14 3 -11 -3z"/>
<path d="M2347 1539 c7 -7 15 -10 18 -7 3 3 -2 9 -12 12 -14 6 -15 5 -6 -5z"/>
<path d="M2428 1543 c7 -3 16 -2 19 1 4 3 -2 6 -13 5 -11 0 -14 -3 -6 -6z"/>
<path d="M2655 1540 c-13 -6 -15 -9 -5 -9 8 0 22 4 30 9 18 12 2 12 -25 0z"/>
<path d="M2765 1540 c-3 -5 -16 -11 -28 -11 -17 -1 -18 -2 -5 -6 10 -2 28 3
40 11 12 9 17 16 11 16 -7 0 -15 -4 -18 -10z"/>
<path d="M2788 1523 c7 -3 16 -2 19 1 4 3 -2 6 -13 5 -11 0 -14 -3 -6 -6z"/>
<path d="M2498 1513 c7 -3 16 -2 19 1 4 3 -2 6 -13 5 -11 0 -14 -3 -6 -6z"/>
<path d="M2633 1512 c-7 -4 6 -8 30 -9 31 -1 37 1 22 7 -26 11 -37 11 -52 2z"/>
<path d="M3925 1260 c4 -6 0 -21 -9 -34 -14 -22 -14 -24 4 -19 14 4 20 14 20
34 0 16 -5 29 -11 29 -5 0 -7 -5 -4 -10z"/>
<path d="M1330 1249 c0 -5 8 -9 18 -10 12 0 10 -3 -8 -11 -14 -6 -32 -10 -40
-9 -12 1 -11 -1 2 -9 12 -7 24 -7 42 2 31 13 34 34 6 41 -11 3 -20 1 -20 -4z"/>
<path d="M1958 1253 c6 -2 18 -2 25 0 6 3 1 5 -13 5 -14 0 -19 -2 -12 -5z"/>
<path d="M3897 1253 c-10 -9 -9 -23 1 -23 5 0 9 7 9 15 0 17 -1 18 -10 8z"/>
<path d="M3952 1240 c0 -14 2 -19 5 -12 2 6 2 18 0 25 -3 6 -5 1 -5 -13z"/>
<path d="M140 1246 c0 -2 7 -6 15 -10 8 -3 15 -1 15 4 0 6 -7 10 -15 10 -8 0
-15 -2 -15 -4z"/>
<path d="M255 1240 c-3 -5 -3 -14 0 -20 4 -6 -10 -10 -34 -10 l-41 0 1 -47 c1
-43 2 -45 9 -18 4 17 8 22 9 12 0 -10 5 -16 10 -13 4 3 6 18 3 32 -5 26 -4 27
37 21 23 -3 41 -1 41 5 0 5 -4 7 -9 4 -5 -3 -12 1 -15 10 -9 22 -8 26 6 18 7
-4 8 -3 4 4 -9 15 -13 15 -21 2z"/>
<path d="M820 1241 c0 -6 -15 -12 -32 -12 -30 -2 -31 -2 -6 -6 32 -5 67 10 49
21 -6 4 -11 2 -11 -3z"/>
<path d="M1176 1242 c-3 -4 4 -9 15 -9 23 -2 25 3 4 10 -8 4 -16 3 -19 -1z"/>
<path d="M2018 1243 c7 -3 16 -2 19 1 4 3 -2 6 -13 5 -11 0 -14 -3 -6 -6z"/>
<path d="M704 1224 c3 -8 1 -14 -4 -14 -6 0 -10 -7 -10 -15 0 -19 20 -19 56 0
16 8 23 15 16 15 -7 0 -22 -5 -33 -10 -23 -13 -25 -7 -4 13 12 13 12 16 -6 20
-15 4 -19 2 -15 -9z"/>
<path d="M1131 1231 c-11 -7 -11 -9 0 -14 11 -4 11 -6 -1 -6 -12 -1 -13 -3 -1
-10 10 -7 11 -13 2 -27 -8 -14 -11 -15 -11 -4 0 12 -3 11 -11 -3 -6 -9 -8 -26
-4 -36 7 -23 -20 -49 -29 -26 -3 8 -12 15 -21 15 -20 0 -19 9 5 30 13 11 17
21 10 25 -5 3 -10 1 -10 -4 0 -6 -5 -11 -11 -11 -5 0 -7 5 -4 10 3 6 2 10 -2
10 -13 0 -34 -40 -28 -50 4 -6 0 -10 -7 -10 -10 0 -10 -2 1 -9 8 -5 10 -14 5
-22 -6 -11 -4 -11 10 0 13 11 14 16 4 22 -9 6 -10 9 -1 9 7 0 17 -8 22 -17 8
-14 10 -15 11 -3 0 13 1 13 10 0 5 -8 7 -23 4 -32 -3 -10 -1 -18 5 -18 6 0 11
6 11 14 0 7 9 25 20 39 13 16 16 28 10 32 -5 3 -10 11 -10 17 0 6 7 5 17 -3 9
-8 14 -9 10 -2 -4 6 0 18 8 27 9 8 11 17 6 21 -6 3 -8 14 -6 25 4 23 5 23 -14
11z m-99 -93 c-7 -7 -12 -8 -12 -2 0 14 12 26 19 19 2 -3 -1 -11 -7 -17z"/>
<path d="M1298 1233 c7 -3 16 -2 19 1 4 3 -2 6 -13 5 -11 0 -14 -3 -6 -6z"/>
<path d="M1389 1231 c11 -7 7 -13 -15 -26 -16 -9 -20 -13 -9 -9 11 4 28 6 37
6 10 0 17 5 15 11 -2 14 -18 27 -32 27 -5 0 -4 -4 4 -9z"/>
<path d="M1826 1229 c3 -5 -1 -9 -8 -9 -8 0 -6 -5 5 -11 20 -12 52 -4 43 10
-3 5 -15 11 -26 14 -11 3 -18 1 -14 -4z m31 -15 c-3 -3 -12 -4 -19 -1 -8 3 -5
6 6 6 11 1 17 -2 13 -5z"/>
<path d="M1940 1230 c8 -5 29 -9 45 -9 26 0 27 2 10 9 -11 5 -31 9 -45 9 -20
1 -22 -1 -10 -9z"/>
<path d="M3993 1224 c-7 -7 -13 -16 -13 -19 0 -3 6 -3 13 1 6 4 3 -2 -7 -14
-11 -12 -26 -22 -34 -22 -12 0 -12 3 4 15 18 14 17 15 -8 4 -15 -7 -25 -16
-22 -20 7 -12 54 -11 54 1 0 6 5 10 11 10 5 0 7 -6 3 -12 -5 -10 -4 -10 5 -2
7 6 11 25 9 42 -2 24 -5 27 -15 16z"/>
<path d="M218 1223 c7 -3 16 -2 19 1 4 3 -2 6 -13 5 -11 0 -14 -3 -6 -6z"/>
<path d="M1904 1218 c10 -8 16 -21 13 -29 -4 -10 -6 -9 -6 4 -1 18 -26 24 -36
7 -3 -6 1 -7 9 -4 9 3 16 3 16 0 0 -4 -10 -11 -22 -15 -18 -7 -14 -9 17 -6 22
2 45 3 50 4 6 1 3 6 -5 11 -12 8 -10 10 8 10 13 0 30 -7 38 -15 9 -8 23 -15
32 -15 13 0 13 2 -4 15 -10 8 -14 15 -9 16 6 1 -10 5 -35 9 -25 4 -54 10 -65
15 -19 7 -19 7 -1 -7z"/>
<path d="M2048 1217 c-16 -6 -28 -15 -28 -19 0 -5 9 -4 19 2 26 13 31 13 31
-5 0 -9 -6 -12 -15 -9 -8 4 -15 1 -15 -6 0 -20 42 -6 51 17 6 18 5 21 -8 16
-11 -4 -14 -2 -9 5 4 7 6 12 4 11 -2 -1 -15 -6 -30 -12z"/>
<path d="M144 1010 c0 -118 2 -167 3 -107 2 59 2 155 0 215 -1 59 -3 10 -3
-108z"/>
<path d="M163 1170 c0 -30 2 -43 4 -27 2 15 2 39 0 55 -2 15 -4 2 -4 -28z"/>
<path d="M1165 1210 c-4 -6 1 -7 11 -3 19 7 14 -7 -14 -39 -10 -12 -11 -18 -3
-18 6 0 14 7 18 16 4 12 14 14 38 10 24 -5 34 -2 39 9 6 17 -5 20 -19 6 -6 -5
-19 -5 -30 -1 -13 6 -15 9 -5 9 13 1 13 2 0 11 -19 12 -27 12 -35 0z"/>
<path d="M1070 1199 c0 -5 5 -7 10 -4 6 3 10 8 10 11 0 2 -4 4 -10 4 -5 0 -10
-5 -10 -11z"/>
<path d="M1768 1204 c-8 -7 2 -44 12 -44 4 0 7 11 6 25 -1 24 -7 31 -18 19z"/>
<path d="M1095 1189 c-4 -6 -5 -12 -2 -15 2 -3 7 2 10 11 7 17 1 20 -8 4z"/>
<path d="M1410 1190 c-13 -8 -12 -10 4 -10 16 0 17 -2 5 -17 -12 -15 -12 -16
4 -10 10 4 23 7 28 7 4 0 5 7 2 17 -5 12 -3 14 8 8 8 -4 11 -4 6 0 -11 13 -40
15 -57 5z"/>
<path d="M3586 1183 c-6 -14 -5 -15 5 -6 7 7 10 15 7 18 -3 3 -9 -2 -12 -12z"/>
<path d="M780 1181 c0 -5 7 -12 16 -15 24 -9 28 -7 14 9 -14 17 -30 20 -30 6z"/>
<path d="M1350 1170 c-13 -8 -12 -10 3 -10 10 0 16 -4 13 -9 -3 -5 1 -12 10
-15 25 -9 27 -2 7 23 -13 15 -22 18 -33 11z"/>
<path d="M1745 1171 c-3 -5 -2 -12 3 -15 5 -3 9 1 9 9 0 17 -3 19 -12 6z"/>
<path d="M1820 1169 c0 -5 5 -7 10 -4 6 3 10 8 10 11 0 2 -4 4 -10 4 -5 0 -10
-5 -10 -11z"/>
<path d="M3630 1150 c0 -11 5 -20 10 -20 6 0 10 9 10 20 0 11 -4 20 -10 20 -5
0 -10 -9 -10 -20z"/>
<path d="M661 1136 c-11 -19 -12 -32 -4 -49 6 -13 9 -36 6 -51 -4 -22 -2 -27
8 -24 8 3 14 17 14 31 1 14 5 30 10 34 4 4 5 3 1 -4 -3 -6 -1 -15 5 -18 19
-12 19 1 0 41 -10 21 -20 45 -22 52 -3 9 -10 5 -18 -12z m21 -48 c-13 -13 -26
8 -17 30 6 16 7 16 17 -1 7 -13 7 -22 0 -29z"/>
<path d="M1841 1151 c-7 -5 -12 -14 -10 -20 3 -7 11 -3 21 9 18 21 13 26 -11
11z"/>
<path d="M2030 1150 c0 -5 7 -7 15 -4 8 4 15 8 15 10 0 2 -7 4 -15 4 -8 0 -15
-4 -15 -10z"/>
<path d="M3586 1145 c-9 -26 -7 -32 5 -12 6 10 9 21 6 23 -2 3 -7 -2 -11 -11z"/>
<path d="M1429 1133 c-13 -16 -12 -17 4 -4 16 13 21 21 13 21 -2 0 -10 -8 -17
-17z"/>
<path d="M1780 1139 c0 -5 4 -9 9 -9 5 0 9 -20 9 -44 -1 -33 -5 -43 -15 -39
-8 3 -11 13 -8 24 4 11 2 19 -4 19 -6 0 -11 -11 -11 -25 0 -32 -1 -35 -11 -65
-9 -24 -8 -24 6 -6 8 11 15 26 15 34 0 9 6 12 15 8 17 -6 21 1 29 60 5 36 3
42 -14 47 -11 3 -20 1 -20 -4z"/>
<path d="M270 1132 c0 -4 9 -8 20 -9 11 -1 18 2 15 8 -7 11 -35 12 -35 1z"/>
<path d="M320 1125 c0 -5 5 -17 10 -25 5 -8 10 -10 10 -5 0 6 -5 17 -10 25 -5
8 -10 11 -10 5z"/>
<path d="M201 1110 c0 -8 2 -25 5 -38 7 -23 7 -23 21 4 9 19 10 31 3 38 -7 7
-10 2 -11 -14 l-1 -25 -8 25 c-4 14 -8 18 -9 10z"/>
<path d="M162 1090 c0 -14 2 -19 5 -12 2 6 2 18 0 25 -3 6 -5 1 -5 -13z"/>
<path d="M183 1058 c0 -32 4 -58 8 -58 5 0 9 -8 9 -17 0 -13 -3 -14 -12 -5 -7
7 -16 12 -20 12 -4 0 -7 -80 -6 -177 l2 -178 6 175 c3 96 7 162 8 145 3 -28 4
-28 12 -9 5 12 14 25 20 29 8 5 6 13 -6 27 -16 16 -16 21 -4 28 9 6 10 10 3
10 -6 0 -14 17 -16 38 -2 24 -4 17 -4 -20z"/>
<path d="M720 1100 c0 -5 7 -10 15 -10 8 0 15 5 15 10 0 6 -7 10 -15 10 -8 0
-15 -4 -15 -10z"/>
<path d="M237 1060 c-20 -46 -21 -56 -7 -65 5 -3 7 0 4 9 -3 8 2 28 11 46 9
17 15 36 13 41 -2 5 -11 -9 -21 -31z"/>
<path d="M985 1089 c-4 -6 -5 -12 -2 -15 2 -3 7 2 10 11 7 17 1 20 -8 4z"/>
<path d="M1822 1080 c0 -14 2 -19 5 -12 2 6 2 18 0 25 -3 6 -5 1 -5 -13z"/>
<path d="M3565 1090 c-3 -5 1 -10 9 -10 9 0 16 5 16 10 0 6 -4 10 -9 10 -6 0
-13 -4 -16 -10z"/>
<path d="M626 1074 c-4 -9 -4 -19 -1 -22 3 -3 5 0 5 7 0 7 5 9 10 6 6 -3 10
-2 10 4 0 18 -18 21 -24 5z"/>
<path d="M3637 1075 c-4 -10 -5 -20 -2 -23 3 -3 5 -2 5 3 0 4 6 3 13 -2 20
-17 60 -23 73 -12 9 7 19 7 33 -1 14 -7 21 -7 21 0 0 11 -19 14 -63 11 -16 -1
-35 3 -43 10 -8 6 -14 8 -15 3 0 -5 -4 0 -8 10 -7 19 -8 19 -14 1z"/>
<path d="M340 1069 c0 -5 5 -7 10 -4 6 3 10 8 10 11 0 2 -4 4 -10 4 -5 0 -10
-5 -10 -11z"/>
<path d="M3600 1072 c0 -6 -8 -13 -17 -15 -16 -4 -16 -5 -1 -6 18 -1 34 16 24
26 -3 4 -6 1 -6 -5z"/>
<path d="M266 1061 c-3 -5 1 -11 9 -15 8 -3 15 -1 15 4 0 13 -18 22 -24 11z"/>
<path d="M1736 1057 c3 -10 9 -15 12 -12 3 3 0 11 -7 18 -10 9 -11 8 -5 -6z"/>
<path d="M2377 1048 c17 -20 28 -24 18 -8 -3 6 4 10 17 9 13 0 17 -3 10 -6 -6
-2 -10 -8 -7 -13 3 -5 -9 -11 -26 -15 -17 -4 -28 -9 -25 -12 8 -8 77 18 71 28
-3 4 4 11 17 13 55 12 60 15 20 12 -23 -2 -40 -1 -38 2 2 4 -13 7 -35 7 -36 1
-38 0 -22 -17z"/>
<path d="M3938 1063 c7 -3 16 -2 19 1 4 3 -2 6 -13 5 -11 0 -14 -3 -6 -6z"/>
<path d="M3978 1063 c7 -3 16 -2 19 1 4 3 -2 6 -13 5 -11 0 -14 -3 -6 -6z"/>
<path d="M4679 1062 c9 -7 10 -12 2 -16 -6 -4 -11 -19 -10 -34 0 -15 3 -21 6
-14 2 6 9 10 14 6 5 -3 12 2 15 10 3 9 10 16 16 16 5 0 6 -4 3 -10 -3 -5 -1
-10 4 -10 6 0 11 9 11 21 0 15 -5 19 -16 15 -8 -3 -12 -2 -9 4 3 6 2 10 -4 10
-5 0 -18 3 -28 6 -13 4 -15 3 -4 -4z"/>
<path d="M4898 1063 c6 -2 18 -2 25 0 6 3 1 5 -13 5 -14 0 -19 -2 -12 -5z"/>
<path d="M162 1030 c0 -19 2 -27 5 -17 2 9 2 25 0 35 -3 9 -5 1 -5 -18z"/>
<path d="M740 1051 c0 -5 7 -12 16 -15 14 -5 15 -4 4 9 -14 17 -20 19 -20 6z"/>
<path d="M2334 1051 c7 -11 -22 -23 -35 -16 -5 4 -6 -2 -2 -11 4 -10 2 -15 -3
-11 -6 3 -11 -3 -11 -14 -1 -15 2 -18 10 -11 7 5 23 8 37 6 19 -3 22 -2 10 6
-13 9 -13 10 0 10 13 0 13 1 0 10 -10 6 -11 10 -2 10 6 0 12 7 12 15 0 8 -5
15 -11 15 -5 0 -8 -4 -5 -9z m-4 -35 c0 -3 -4 -8 -10 -11 -5 -3 -10 -1 -10 4
0 6 5 11 10 11 6 0 10 -2 10 -4z"/>
<path d="M3516 1044 c-4 -9 -4 -19 -1 -22 2 -3 7 3 11 12 4 9 4 19 1 22 -2 3
-7 -3 -11 -12z"/>
<path d="M4335 1051 c16 -7 14 -9 -15 -16 -24 -5 -29 -9 -17 -12 9 -3 15 -9
12 -14 -3 -5 1 -6 10 -2 13 5 14 7 3 14 -9 6 -5 9 14 9 15 0 29 4 33 9 3 5 22
7 43 4 20 -3 34 -3 31 0 -3 4 -34 9 -70 12 -37 2 -56 1 -44 -4z"/>
<path d="M4863 1053 c11 -7 8 -31 -5 -36 -10 -4 -10 -6 0 -6 7 -1 15 6 18 14
4 8 15 15 25 15 12 0 16 -5 13 -15 -4 -8 -13 -15 -20 -15 -12 0 -12 -3 -3 -13
11 -11 16 -10 29 2 22 22 13 51 -15 51 -13 0 -29 2 -37 3 -7 2 -10 2 -5 0z"/>
<path d="M4948 1053 c7 -3 16 -2 19 1 4 3 -2 6 -13 5 -11 0 -14 -3 -6 -6z"/>
<path d="M609 1038 c14 -19 6 -42 -11 -32 -7 5 -8 2 -3 -5 4 -8 -1 -18 -14
-27 -17 -12 -19 -18 -9 -33 9 -15 8 -25 -6 -46 -21 -32 -33 -27 -16 7 l13 23
-20 -20 c-27 -27 -19 -75 13 -75 19 0 18 -10 -2 -25 -15 -10 -15 -12 -1 -12 9
0 19 7 22 15 6 17 -13 44 -26 36 -5 -3 -9 0 -9 5 0 6 4 11 8 11 5 0 17 16 28
35 13 24 21 31 27 22 5 -7 6 -4 2 10 -3 12 -1 24 5 28 6 4 8 15 5 25 -3 10 -1
21 5 25 5 3 10 1 10 -5 0 -6 5 -8 10 -5 6 3 10 11 10 16 0 6 -4 7 -10 4 -5 -3
-10 -2 -10 4 0 5 3 11 8 14 4 2 2 3 -4 1 -6 -1 -18 3 -25 9 -11 10 -11 9 0 -5z
m-6 -79 c-8 -8 -13 -7 -18 2 -5 8 -4 10 3 5 7 -4 12 -2 12 5 0 7 3 9 7 6 4 -4
2 -12 -4 -18z"/>
<path d="M2530 1040 c8 -5 20 -10 25 -10 6 0 3 5 -5 10 -8 5 -19 10 -25 10 -5
0 -3 -5 5 -10z"/>
<path d="M3014 1021 c0 -27 2 -28 23 -18 13 5 23 16 23 23 0 7 6 14 12 16 7 3
-3 5 -23 6 -33 1 -35 -1 -35 -27z"/>
<path d="M3290 1040 c0 -3 4 -11 9 -19 6 -9 11 -10 15 -2 4 6 16 11 27 11 10
0 19 5 19 10 0 6 -16 10 -35 8 -19 -1 -35 -5 -35 -8z"/>
<path d="M3933 1035 c-2 -8 -3 -24 0 -37 4 -21 4 -21 6 4 1 21 5 25 20 21 12
-3 21 -16 23 -32 3 -20 5 -17 8 14 5 39 4 40 -23 42 -16 0 -31 -5 -34 -12z"/>
<path d="M4250 1040 c-11 -7 -11 -10 -2 -10 7 0 11 -4 8 -9 -3 -4 7 -14 22
-20 l27 -13 -23 25 c-22 23 -22 26 -5 30 12 3 13 5 3 6 -8 0 -22 -4 -30 -9z"/>
<path d="M4810 1046 c0 -2 7 -7 16 -10 8 -3 12 -2 9 4 -6 10 -25 14 -25 6z"/>
<path d="M4977 1039 c-9 -6 -23 -7 -30 -3 -6 4 0 -4 16 -19 26 -25 38 -55 17
-42 -6 3 -13 -1 -16 -10 -6 -14 -9 -14 -28 2 -21 18 -21 18 -3 -3 12 -15 16
-31 12 -50 -5 -27 -5 -27 5 -6 5 13 15 20 20 17 7 -4 9 3 5 22 -5 19 -4 24 3
15 7 -11 10 -10 16 3 3 9 3 22 0 28 -10 17 8 -1 36 -38 12 -16 21 -25 19 -20
-15 35 -35 71 -43 76 -5 4 -6 11 -2 17 9 16 -7 22 -27 11z m17 -14 c-4 -8 -11
-12 -16 -9 -6 4 -5 10 3 15 19 12 19 11 13 -6z"/>
<path d="M963 1017 c-14 -17 -18 -29 -11 -46 11 -32 25 -18 30 29 2 22 3 40 3
40 -1 0 -10 -10 -22 -23z"/>
<path d="M293 1020 c2 -8 10 -14 17 -12 7 2 9 -5 6 -20 l-6 -23 12 23 c9 17 9
25 0 34 -9 9 -12 9 -12 -2 0 -13 -2 -13 -11 0 -9 13 -10 13 -6 0z"/>
<path d="M1730 1019 c0 -5 5 -7 10 -4 6 3 10 8 10 11 0 2 -4 4 -10 4 -5 0 -10
-5 -10 -11z"/>
<path d="M2515 1020 c-3 -5 -1 -10 4 -10 6 0 11 5 11 10 0 6 -2 10 -4 10 -3 0
-8 -4 -11 -10z"/>
<path d="M3580 1026 c0 -2 7 -7 16 -10 8 -3 12 -2 9 4 -6 10 -25 14 -25 6z"/>
<path d="M3680 1019 c0 -5 9 -9 20 -9 11 0 20 2 20 4 0 2 -9 6 -20 9 -11 3
-20 1 -20 -4z"/>
<path d="M3894 885 c0 -82 2 -115 3 -72 2 43 2 110 0 150 -1 40 -3 5 -3 -78z"/>
<path d="M4755 1019 c-4 -6 -5 -12 -2 -15 2 -3 7 2 10 11 7 17 1 20 -8 4z"/>
<path d="M4783 1015 c-8 -24 3 -29 27 -12 18 13 19 15 5 21 -23 8 -25 8 -32
-9z"/>
<path d="M353 1006 c3 -8 1 -18 -5 -24 -6 -6 -6 -12 1 -16 6 -4 11 -2 11 5 0
7 7 20 15 29 13 14 12 16 -6 17 -13 1 -19 -3 -16 -11z"/>
<path d="M2540 1011 c0 -5 6 -11 14 -14 14 -6 16 -23 4 -42 -3 -5 -2 -32 3
-60 4 -27 8 -57 9 -65 2 -18 18 17 19 40 1 13 -1 13 -10 0 -9 -12 -10 -12 -5
3 3 10 6 22 6 25 1 4 7 -4 14 -17 11 -20 14 -21 19 -7 4 10 3 15 -2 12 -13 -8
-22 64 -10 85 7 15 6 17 -5 13 -9 -3 -17 3 -21 15 -6 20 -35 30 -35 12z m40
-62 c-7 -11 -14 -18 -17 -15 -3 3 0 12 7 21 18 21 23 19 10 -6z"/>
<path d="M3530 1010 c0 -5 8 -6 17 -3 13 5 15 2 10 -11 -6 -14 -3 -16 13 -11
14 5 18 2 15 -7 -4 -9 3 -14 17 -15 18 -2 20 0 8 7 -13 9 -13 10 0 10 17 1
-48 39 -67 40 -7 0 -13 -4 -13 -10z"/>
<path d="M3911 1004 c0 -11 3 -14 6 -6 3 7 2 16 -1 19 -3 4 -6 -2 -5 -13z"/>
<path d="M4169 1015 c-1 -6 -1 -14 0 -19 1 -4 -4 -14 -10 -22 -7 -8 -9 -17 -6
-20 3 -3 13 6 23 21 13 20 14 29 5 38 -6 6 -12 7 -12 2z"/>
<path d="M4230 1011 c0 -7 -4 -10 -9 -6 -12 7 -33 -29 -24 -39 3 -3 2 -6 -4
-6 -6 0 -14 -7 -17 -16 -4 -10 -2 -13 6 -8 7 5 9 0 6 -14 -3 -12 0 -26 7 -32
11 -9 12 -4 5 24 -4 19 -5 38 -1 41 6 6 7 10 10 36 0 5 5 8 10 4 11 -6 26 13
17 22 -3 4 -6 1 -6 -6z"/>
<path d="M4400 1014 c0 -3 6 -12 14 -19 14 -14 36 -2 36 20 0 5 -5 3 -11 -5
-8 -11 -12 -12 -16 -2 -5 12 -23 17 -23 6z"/>
<path d="M766 1001 c-8 -12 4 -41 16 -41 6 0 5 6 -2 15 -6 8 -9 19 -5 25 3 5
4 10 1 10 -3 0 -7 -4 -10 -9z"/>
<path d="M1880 996 c6 -6 18 -5 32 1 21 10 21 10 -9 9 -19 -1 -28 -5 -23 -10z"/>
<path d="M2250 1000 c0 -5 5 -10 11 -10 5 0 7 5 4 10 -3 6 -8 10 -11 10 -2 0
-4 -4 -4 -10z"/>
<path d="M2485 1000 c3 -5 8 -10 11 -10 2 0 4 5 4 10 0 6 -5 10 -11 10 -5 0
-7 -4 -4 -10z"/>
<path d="M3625 1000 c3 -5 10 -10 16 -10 5 0 9 5 9 10 0 6 -7 10 -16 10 -8 0
-12 -4 -9 -10z"/>
<path d="M4945 999 c-10 -15 3 -25 16 -12 7 7 7 13 1 17 -6 3 -14 1 -17 -5z"/>
<path d="M646 981 c-10 -11 -15 -25 -11 -32 6 -8 13 -3 22 15 18 34 12 43 -11
17z"/>
<path d="M3660 990 c0 -5 7 -7 15 -4 8 4 15 8 15 10 0 2 -7 4 -15 4 -8 0 -15
-4 -15 -10z"/>
<path d="M4460 989 c0 -4 11 -9 24 -11 15 -3 23 -1 20 6 -5 12 -44 16 -44 5z"/>
<path d="M1040 981 c0 -5 5 -13 10 -16 6 -3 10 -2 10 4 0 5 -4 13 -10 16 -5 3
-10 2 -10 -4z"/>
<path d="M1777 971 c-4 -17 -3 -21 5 -13 5 5 8 16 6 23 -3 8 -7 3 -11 -10z"/>
<path d="M1810 980 c0 -5 5 -10 11 -10 5 0 7 5 4 10 -3 6 -8 10 -11 10 -2 0
-4 -4 -4 -10z"/>
<path d="M1863 984 c4 -4 1 -14 -6 -22 -10 -13 -9 -14 11 -3 27 14 27 17 5 25
-10 4 -14 4 -10 0z"/>
<path d="M1908 969 c-29 -26 -54 -32 -77 -20 -25 14 -31 14 -31 1 0 -5 9 -10
21 -10 12 0 17 -4 13 -11 -4 -8 1 -9 16 -4 15 5 20 4 16 -4 -5 -7 -1 -8 10 -4
11 4 13 8 6 11 -7 2 4 15 24 28 19 13 40 22 45 19 5 -4 16 -2 25 3 12 6 8 9
-16 9 -17 0 -40 -8 -52 -18z"/>
<path d="M2535 980 c-3 -5 -4 -10 -1 -10 3 0 1 -11 -4 -25 -6 -16 -6 -25 0
-25 8 0 13 21 9 46 0 4 5 11 13 15 9 6 9 9 1 9 -6 0 -15 -4 -18 -10z"/>
<path d="M4236 966 c-15 -13 -26 -34 -26 -47 1 -22 2 -21 14 7 8 17 24 39 37
48 13 9 18 16 12 16 -7 0 -23 -11 -37 -24z"/>
<path d="M4750 975 c-8 -9 -8 -15 -2 -15 12 0 26 19 19 26 -2 2 -10 -2 -17
-11z"/>
<path d="M2232 967 c-8 -9 -8 -23 -2 -43 l10 -29 -3 33 c-2 18 0 35 5 38 4 3
8 -6 8 -20 0 -14 4 -26 9 -26 5 0 11 -6 14 -12 2 -7 2 -4 -1 7 -2 11 -5 30 -6
43 -1 24 -18 29 -34 9z"/>
<path d="M2289 963 c-13 -16 -12 -17 4 -4 9 7 17 15 17 17 0 8 -8 3 -21 -13z"/>
<path d="M370 955 c0 -8 2 -15 4 -15 2 0 6 7 10 15 3 8 1 15 -4 15 -6 0 -10
-7 -10 -15z"/>
<path d="M1980 966 c0 -2 9 -6 20 -9 11 -3 18 -1 14 4 -5 9 -34 13 -34 5z"/>
<path d="M4702 945 c-7 -70 -6 -313 1 -306 4 4 6 81 4 172 -1 90 -4 151 -5
134z"/>
<path d="M234 800 c0 -91 2 -128 3 -82 2 45 2 119 0 165 -1 45 -3 8 -3 -83z"/>
<path d="M330 954 c0 -16 17 -37 27 -33 6 2 2 13 -8 23 -11 11 -19 15 -19 10z"/>
<path d="M3080 872 c0 -65 -4 -93 -16 -108 -15 -18 -15 -18 -9 11 l5 30 -17
-27 c-10 -16 -23 -28 -31 -28 -9 0 -10 -5 -3 -19 6 -10 7 -22 3 -27 -4 -5 1
-2 11 5 9 7 17 20 17 28 0 8 4 12 9 8 5 -3 17 2 25 11 12 12 16 37 16 110 0
52 -2 94 -5 94 -3 0 -5 -40 -5 -88z"/>
<path d="M3984 800 c0 -91 2 -128 3 -82 2 45 2 119 0 165 -1 45 -3 8 -3 -83z"/>
<path d="M4486 948 c3 -5 10 -6 15 -3 13 9 11 12 -6 12 -8 0 -12 -4 -9 -9z"/>
<path d="M204 795 c0 -88 2 -123 3 -77 2 46 2 118 0 160 -1 42 -3 5 -3 -83z"/>
<path d="M2320 941 c0 -7 -4 -9 -10 -6 -5 3 -10 2 -10 -4 0 -5 4 -12 9 -15 10
-6 25 24 16 32 -3 3 -5 0 -5 -7z"/>
<path d="M3022 930 c0 -14 2 -19 5 -12 2 6 2 18 0 25 -3 6 -5 1 -5 -13z"/>
<path d="M4525 934 c4 -16 1 -22 -11 -20 -9 0 -19 -6 -21 -14 -4 -12 -3 -12 5
-1 8 10 12 9 24 -8 13 -19 16 -20 22 -6 3 9 -1 28 -9 43 -12 21 -14 22 -10 6z"/>
<path d="M620 925 c0 -8 4 -15 10 -15 5 0 7 7 4 15 -4 8 -8 15 -10 15 -2 0 -4
-7 -4 -15z"/>
<path d="M1930 930 c0 -5 7 -10 16 -10 8 0 12 5 9 10 -3 6 -10 10 -16 10 -5 0
-9 -4 -9 -10z"/>
<path d="M2070 931 c0 -6 4 -13 10 -16 6 -3 7 1 4 9 -7 18 -14 21 -14 7z"/>
<path d="M941 914 c0 -11 3 -14 6 -6 3 7 2 16 -1 19 -3 4 -6 -2 -5 -13z"/>
<path d="M4124 905 c-9 -14 -14 -28 -10 -32 3 -3 6 -1 6 5 0 7 9 21 20 32 11
11 16 20 10 20 -5 0 -17 -11 -26 -25z"/>
<path d="M5011 920 c-1 -8 8 -28 19 -45 11 -16 20 -25 20 -18 0 6 3 20 6 30 5
15 4 15 -5 3 -11 -16 -12 -15 -28 20 -7 14 -12 18 -12 10z"/>
<path d="M410 910 c-12 -8 -11 -10 5 -11 11 0 15 -3 9 -5 -18 -8 -4 -48 20
-60 22 -10 22 -9 12 20 -19 53 -30 66 -46 56z"/>
<path d="M1890 910 c-8 -5 -10 -10 -5 -10 6 0 17 5 25 10 8 5 11 10 5 10 -5 0
-17 -5 -25 -10z"/>
<path d="M1970 912 c0 -10 50 -35 57 -28 2 2 -5 7 -16 11 -12 3 -21 11 -21 16
0 5 -4 9 -10 9 -5 0 -10 -4 -10 -8z"/>
<path d="M2610 910 c0 -5 5 -10 11 -10 5 0 7 5 4 10 -3 6 -8 10 -11 10 -2 0
-4 -4 -4 -10z"/>
<path d="M4440 909 c0 -5 5 -7 10 -4 6 3 10 8 10 11 0 2 -4 4 -10 4 -5 0 -10
-5 -10 -11z"/>
<path d="M3932 880 c0 -19 2 -27 5 -17 2 9 2 25 0 35 -3 9 -5 1 -5 -18z"/>
<path d="M4146 894 c-9 -24 -2 -26 12 -4 7 11 8 20 3 20 -5 0 -12 -7 -15 -16z"/>
<path d="M183 850 c0 -30 2 -43 4 -27 2 15 2 39 0 55 -2 15 -4 2 -4 -28z"/>
<path d="M4961 884 c0 -11 3 -14 6 -6 3 7 2 16 -1 19 -3 4 -6 -2 -5 -13z"/>
<path d="M380 875 c-11 -13 -10 -14 5 -9 13 5 16 4 11 -5 -4 -6 -3 -17 2 -24
5 -7 9 -19 9 -28 0 -16 54 -91 61 -84 2 2 -8 20 -24 40 -15 20 -28 49 -29 64
-1 16 -7 36 -12 45 -9 16 -11 16 -23 1z"/>
<path d="M981 873 c0 -11 3 -13 6 -5 2 6 10 9 15 6 7 -4 8 -2 4 4 -11 18 -26
14 -25 -5z"/>
<path d="M2211 880 c0 -8 4 -22 9 -30 12 -18 12 -2 0 25 -6 13 -9 15 -9 5z"/>
<path d="M2530 874 c0 -8 5 -12 10 -9 6 4 8 11 5 16 -9 14 -15 11 -15 -7z"/>
<path d="M2627 868 c-3 -13 -2 -39 2 -58 7 -31 8 -28 8 23 -1 31 -2 57 -3 57
-1 0 -4 -10 -7 -22z"/>
<path d="M2090 865 c0 -8 7 -15 15 -15 9 0 12 6 9 15 -4 8 -10 15 -15 15 -5 0
-9 -7 -9 -15z"/>
<path d="M2281 852 c-1 -19 -5 -31 -11 -27 -5 3 -10 2 -10 -3 0 -6 7 -13 16
-16 11 -4 14 -13 10 -31 -4 -15 -2 -25 4 -25 6 0 8 -10 4 -25 -5 -21 -3 -25
15 -25 16 0 20 6 18 29 -1 16 -5 27 -9 25 -4 -2 -9 0 -13 6 -3 5 -1 10 4 10 6
0 11 5 11 11 0 5 -4 8 -9 4 -5 -3 -14 18 -19 47 -8 43 -10 46 -11 20z"/>
<path d="M2302 860 c0 -14 2 -19 5 -12 2 6 2 18 0 25 -3 6 -5 1 -5 -13z"/>
<path d="M754 854 c3 -9 6 -18 6 -20 0 -3 5 -2 10 1 16 10 12 35 -6 35 -11 0
-14 -5 -10 -16z"/>
<path d="M1021 854 c0 -11 3 -14 6 -6 3 7 2 16 -1 19 -3 4 -6 -2 -5 -13z"/>
<path d="M2013 859 c14 -8 15 -14 7 -24 -9 -11 -7 -12 9 -8 17 4 18 8 8 24 -6
10 -19 19 -27 19 -12 -1 -11 -3 3 -11z"/>
<path d="M570 856 c0 -2 7 -9 15 -16 9 -7 15 -8 15 -2 0 5 -7 12 -15 16 -8 3
-15 4 -15 2z"/>
<path d="M969 828 c4 -28 6 -29 9 -9 2 13 0 27 -5 32 -6 6 -7 -3 -4 -23z"/>
<path d="M4990 850 c0 -5 5 -10 10 -10 6 0 10 5 10 10 0 6 -4 10 -10 10 -5 0
-10 -4 -10 -10z"/>
<path d="M4186 838 c7 -11 34 -10 34 1 0 6 -9 9 -19 8 -11 0 -17 -5 -15 -9z"/>
<path d="M486 824 c4 -17 1 -21 -18 -20 -13 1 -27 6 -31 11 -5 6 -7 4 -4 -5 2
-8 12 -14 22 -12 12 2 16 -1 12 -11 -9 -25 17 -14 42 17 14 17 18 26 11 19
-11 -10 -16 -9 -26 5 -12 15 -13 15 -8 -4z"/>
<path d="M1075 830 c-3 -5 -3 -22 0 -37 6 -27 6 -27 -9 -9 -14 17 -16 17 -22
3 -4 -12 -13 -15 -30 -11 -15 4 -24 2 -24 -5 0 -6 5 -10 12 -8 7 1 13 -8 14
-21 2 -27 14 -43 14 -18 0 10 5 14 11 11 6 -4 8 -14 5 -22 -4 -9 -2 -11 6 -7
8 5 9 2 5 -10 -4 -10 -2 -16 6 -15 33 4 49 -2 43 -17 -3 -9 -2 -12 5 -9 5 4
16 1 24 -5 12 -10 15 -9 15 4 0 9 -7 16 -15 16 -9 0 -18 6 -21 14 -3 8 -12 12
-20 9 -17 -6 -19 13 -1 21 6 3 2 3 -10 0 -18 -4 -23 -1 -23 14 0 11 -5 22 -12
24 -7 3 -8 10 -4 17 6 9 12 9 18 3 6 -6 17 -8 24 -5 16 6 19 33 3 33 -6 0 -8
9 -4 20 7 21 1 27 -10 10z"/>
<path d="M1029 828 c0 -2 -2 -11 -4 -21 -3 -15 -1 -16 11 -6 16 13 19 29 4 29
-5 0 -10 -1 -11 -2z"/>
<path d="M2037 787 c5 -26 38 -34 47 -11 4 9 -3 18 -20 24 -33 13 -32 14 -27
-13z"/>
<path d="M2232 781 c0 -17 4 -31 9 -31 11 0 12 30 0 48 -5 9 -8 3 -9 -17z"/>
<path d="M2539 789 c-6 -11 -8 -23 -5 -27 3 -3 6 0 6 7 0 7 3 10 8 8 4 -3 12
1 19 8 10 10 9 14 -2 19 -9 3 -19 -3 -26 -15z"/>
<path d="M4131 797 c-14 -14 -14 -30 0 -21 6 3 10 -1 9 -12 -5 -44 10 -60 52
-60 24 1 43 6 46 14 2 6 9 9 15 5 7 -3 8 -2 4 3 -5 5 -14 9 -20 9 -6 0 -15 11
-19 25 -6 19 -6 17 -3 -10 4 -31 2 -35 -19 -36 -13 -1 -23 3 -23 10 2 69 -16
99 -42 73z"/>
<path d="M4481 796 c-8 -9 -9 -16 -3 -16 6 0 13 6 15 13 3 6 6 0 6 -15 1 -32
26 -29 34 4 4 15 3 18 -5 10 -8 -8 -14 -7 -23 4 -10 14 -12 14 -24 0z"/>
<path d="M2260 784 c0 -8 5 -12 10 -9 6 4 8 11 5 16 -9 14 -15 11 -15 -7z"/>
<path d="M2610 789 c0 -5 -5 -7 -10 -4 -6 4 -8 -7 -5 -30 3 -30 2 -35 -9 -26
-11 9 -15 6 -20 -14 -6 -23 -10 -26 -36 -20 -20 4 -30 3 -30 -5 0 -6 6 -10 13
-7 6 2 20 0 30 -5 11 -5 17 -5 17 2 0 5 7 10 16 10 8 0 12 5 9 10 -3 6 -2 10
4 10 6 0 18 14 27 31 9 19 11 28 4 24 -9 -5 -10 -1 -5 14 3 11 4 21 1 21 -3 0
-6 -5 -6 -11z"/>
<path d="M3290 767 c0 -31 -3 -37 -22 -38 -13 0 -17 -3 -10 -6 22 -9 13 -20
-28 -37 -48 -19 -53 -20 -44 -4 5 8 -2 9 -24 5 -19 -4 -32 -2 -32 3 0 6 -7 10
-15 10 -11 0 -13 8 -8 33 4 22 2 29 -5 22 -20 -20 -19 -77 2 -69 9 3 13 -1 13
-13 -2 -15 5 -18 45 -17 28 1 61 10 83 23 20 11 42 21 49 21 10 0 12 12 8 48
-6 58 -12 68 -12 19z"/>
<path d="M3642 775 c0 -16 2 -22 5 -12 2 9 2 23 0 30 -3 6 -5 -1 -5 -18z"/>
<path d="M3948 728 c-2 -40 0 -77 4 -82 4 -6 8 27 8 72 0 45 -2 82 -4 82 -2 0
-6 -33 -8 -72z"/>
<path d="M1106 766 c-8 -33 -3 -42 11 -24 6 7 7 22 3 33 -6 17 -8 16 -14 -9z"/>
<path d="M3332 765 c0 -16 2 -22 5 -12 2 9 2 23 0 30 -3 6 -5 -1 -5 -18z"/>
<path d="M3913 740 c0 -30 2 -43 4 -27 2 15 2 39 0 55 -2 15 -4 2 -4 -28z"/>
<path d="M5043 715 c0 -44 2 -61 4 -37 2 23 2 59 0 80 -2 20 -4 1 -4 -43z"/>
<path d="M2566 763 c-6 -14 -5 -15 5 -6 7 7 10 15 7 18 -3 3 -9 -2 -12 -12z"/>
<path d="M4181 764 c0 -11 3 -14 6 -6 3 7 2 16 -1 19 -3 4 -6 -2 -5 -13z"/>
<path d="M530 762 c0 -6 -9 -14 -20 -17 -26 -8 -26 -41 -1 -41 11 0 19 3 18 6
0 3 3 15 7 28 4 13 5 26 2 29 -3 4 -6 1 -6 -5z"/>
<path d="M2825 757 c-10 -24 -1 -80 13 -85 9 -3 11 8 8 42 -4 51 -12 68 -21
43z"/>
<path d="M3561 754 c0 -11 3 -14 6 -6 3 7 2 16 -1 19 -3 4 -6 -2 -5 -13z"/>
<path d="M4455 759 c-4 -6 -5 -12 -2 -15 2 -3 7 2 10 11 7 17 1 20 -8 4z"/>
<path d="M1392 741 c7 -9 13 -18 15 -20 1 -2 9 3 17 12 14 13 12 15 -14 19
-26 4 -28 2 -18 -11z"/>
<path d="M1768 753 c-10 -2 -18 -8 -18 -11 0 -12 50 -31 56 -21 3 5 -2 12 -10
15 -9 3 -13 10 -10 15 3 5 4 8 2 8 -2 -1 -11 -3 -20 -6z"/>
<path d="M2007 754 c-8 -8 1 -24 14 -24 5 0 9 7 9 15 0 15 -12 20 -23 9z"/>
<path d="M1070 740 c0 -5 5 -10 11 -10 5 0 7 5 4 10 -3 6 -8 10 -11 10 -2 0
-4 -4 -4 -10z"/>
<path d="M1154 718 c10 -16 27 -28 38 -28 16 0 18 3 9 14 -9 11 -9 15 1 20 7
3 3 3 -10 0 -13 -3 -30 0 -39 8 -14 11 -13 8 1 -14z"/>
<path d="M1355 730 l20 -9 -20 -1 c-19 -1 -19 -1 -2 -11 13 -8 22 -8 29 -1 15
15 1 32 -25 31 -21 0 -21 -1 -2 -9z"/>
<path d="M1720 724 c0 -8 5 -12 10 -9 6 4 8 11 5 16 -9 14 -15 11 -15 -7z"/>
<path d="M1977 733 c-3 -5 -1 -17 4 -28 7 -17 8 -17 8 8 1 27 -4 34 -12 20z"/>
<path d="M2341 723 c7 -12 15 -20 18 -17 3 2 -3 12 -13 22 -17 16 -18 16 -5
-5z"/>
<path d="M2495 730 c-6 -11 44 -34 53 -25 3 3 0 5 -7 5 -7 0 -9 5 -5 11 4 8
-1 9 -16 4 -15 -5 -20 -4 -16 4 4 6 5 11 2 11 -3 0 -8 -5 -11 -10z"/>
<path d="M3576 725 c-3 -8 0 -15 7 -15 8 0 7 -4 -3 -10 -18 -11 -8 -23 14 -14
20 8 21 28 2 43 -10 9 -15 8 -20 -4z"/>
<path d="M4405 729 c-3 -4 2 -6 10 -5 21 3 28 13 10 13 -9 0 -18 -4 -20 -8z"/>
<path d="M1438 723 c7 -3 16 -2 19 1 4 3 -2 6 -13 5 -11 0 -14 -3 -6 -6z"/>
<path d="M3327 724 c-4 -4 -7 -16 -7 -26 0 -11 -4 -16 -10 -13 -5 3 -10 1 -10
-4 0 -6 10 -11 22 -11 12 0 18 3 15 7 -4 3 1 15 10 26 10 11 13 17 6 14 -6 -4
-13 -2 -15 4 -2 5 -7 7 -11 3z"/>
<path d="M4466 715 c-5 -14 10 -41 16 -29 14 26 15 41 2 41 -7 0 -15 -6 -18
-12z"/>
<path d="M773 685 c0 -22 2 -30 4 -17 2 12 2 30 0 40 -3 9 -5 -1 -4 -23z"/>
<path d="M1232 713 c-23 -9 -1 -23 36 -23 35 1 36 2 18 15 -20 15 -32 17 -54
8z"/>
<path d="M1747 713 c-10 -10 -8 -23 4 -23 5 0 8 4 5 9 -4 5 0 12 6 14 7 3 8 6
2 6 -6 1 -14 -2 -17 -6z"/>
<path d="M1943 713 c-18 -7 -16 -20 2 -20 8 0 15 6 15 14 0 7 -1 13 -2 12 -2
0 -9 -3 -15 -6z"/>
<path d="M2015 712 c3 -3 0 -11 -6 -19 -8 -8 -8 -13 -1 -13 6 0 12 6 15 13 2
6 8 9 11 5 4 -3 -2 -16 -14 -28 -12 -12 -20 -24 -17 -26 3 -3 11 2 20 10 8 8
18 12 22 8 4 -4 5 0 3 8 -2 9 3 14 12 12 11 -3 9 2 -5 16 -17 15 -55 29 -40
14z"/>
<path d="M2067 709 c7 -7 15 -10 18 -7 3 3 -2 9 -12 12 -14 6 -15 5 -6 -5z"/>
<path d="M2261 704 c6 -7 7 -19 3 -26 -5 -9 -2 -8 10 2 11 8 14 16 7 18 -6 2
-9 7 -7 11 3 4 -1 8 -9 8 -11 0 -12 -4 -4 -13z"/>
<path d="M3040 705 c-7 -9 -10 -18 -7 -22 4 -3 10 2 14 12 6 18 7 18 14 -1 6
-16 8 -16 8 -2 1 24 -14 31 -29 13z"/>
<path d="M1399 700 c-1 -3 -1 -9 0 -14 1 -5 -5 -6 -13 -3 -9 4 -17 3 -20 -1
-3 -4 12 -8 32 -9 20 0 31 2 24 4 -6 3 -10 9 -7 13 3 5 12 7 19 4 8 -3 16 -2
19 3 3 4 -8 8 -24 8 -16 1 -30 -2 -30 -5z"/>
<path d="M1850 700 c-14 -4 -20 -9 -15 -9 6 -1 4 -5 -4 -10 -7 -5 -9 -11 -4
-14 6 -4 25 5 43 18 34 25 27 30 -20 15z"/>
<path d="M3647 704 c-3 -4 -3 -12 0 -18 8 -11 13 -32 15 -53 1 -6 8 -8 17 -5
10 4 11 7 3 10 -14 4 -16 32 -3 32 5 0 12 -6 14 -12 4 -10 6 -10 6 0 1 17 21
15 21 -2 0 -8 5 -18 12 -22 7 -4 8 -3 4 4 -12 20 4 35 17 17 10 -13 12 -11 14
11 1 19 -1 23 -8 13 -7 -12 -9 -12 -9 0 0 11 -3 11 -17 0 -15 -12 -16 -12 -10
4 7 19 -8 24 -16 5 -4 -10 -8 -10 -15 1 -8 11 -11 11 -17 0 -7 -10 -10 -9 -15
5 -3 9 -9 14 -13 10z"/>
<path d="M2300 680 c0 -5 5 -10 11 -10 5 0 7 5 4 10 -3 6 -8 10 -11 10 -2 0
-4 -4 -4 -10z"/>
<path d="M2349 677 c7 -7 7 -14 0 -23 -8 -10 3 -9 48 1 50 12 59 12 66 -1 7
-12 12 -13 23 -3 10 8 14 8 14 0 0 -6 5 -11 11 -11 8 0 8 5 -1 15 -10 12 -16
13 -28 3 -13 -11 -15 -10 -9 5 4 10 2 17 -6 18 -96 6 -127 5 -118 -4z"/>
<path d="M3275 680 c-3 -5 -1 -10 4 -10 6 0 11 5 11 10 0 6 -2 10 -4 10 -3 0
-8 -4 -11 -10z"/>
<path d="M4185 680 c-3 -6 1 -7 9 -4 18 7 21 14 7 14 -6 0 -13 -4 -16 -10z"/>
<path d="M4310 679 c-12 -9 -12 -10 4 -5 16 6 17 4 6 -10 -12 -14 -10 -15 23
-9 26 5 42 3 54 -6 15 -13 15 -12 2 9 -8 12 -18 22 -24 22 -5 0 -19 3 -30 5
-11 3 -27 0 -35 -6z"/>
<path d="M4440 679 c0 -5 5 -7 10 -4 6 3 10 8 10 11 0 2 -4 4 -10 4 -5 0 -10
-5 -10 -11z"/>
<path d="M1967 666 c-4 -10 -5 -21 -2 -24 9 -9 17 6 13 25 -3 17 -4 17 -11 -1z"/>
<path d="M3605 670 c-8 -13 5 -13 25 0 13 8 13 10 -2 10 -9 0 -20 -4 -23 -10z"/>
<path d="M1750 660 c8 -5 22 -9 30 -9 10 0 8 3 -5 9 -27 12 -43 12 -25 0z"/>
<path d="M2287 659 c7 -7 15 -10 18 -7 3 3 -2 9 -12 12 -14 6 -15 5 -6 -5z"/>
<path d="M2527 659 c7 -7 15 -10 18 -7 3 3 -2 9 -12 12 -14 6 -15 5 -6 -5z"/>
<path d="M3046 661 c-3 -5 1 -11 9 -15 8 -3 15 -1 15 4 0 13 -18 22 -24 11z"/>
<path d="M4235 650 c-3 -6 1 -7 9 -4 18 7 21 14 7 14 -6 0 -13 -4 -16 -10z"/>
<path d="M1886 637 c-14 -10 -10 -12 24 -12 21 -1 38 0 37 1 -23 17 -46 22
-61 11z"/>
<path d="M1218 633 c7 -3 16 -2 19 1 4 3 -2 6 -13 5 -11 0 -14 -3 -6 -6z"/>
<path d="M1268 633 c7 -3 16 -2 19 1 4 3 -2 6 -13 5 -11 0 -14 -3 -6 -6z"/>
<path d="M1655 410 c3 -5 8 -10 11 -10 2 0 4 5 4 10 0 6 -5 10 -11 10 -5 0 -7
-4 -4 -10z"/>
<path d="M2600 405 c-7 -9 -11 -17 -9 -20 3 -2 10 5 17 15 14 24 10 26 -8 5z"/>
<path d="M2957 349 c12 -12 24 -21 27 -18 2 2 -8 13 -22 23 l-27 19 22 -24z"/>
<path d="M2400 341 c0 -6 4 -13 10 -16 6 -3 7 1 4 9 -7 18 -14 21 -14 7z"/>
<path d="M2700 318 c0 -19 2 -20 10 -8 13 19 13 30 0 30 -5 0 -10 -10 -10 -22z"/>
<path d="M2570 316 c0 -2 8 -10 18 -17 15 -13 16 -12 3 4 -13 16 -21 21 -21
13z"/>
<path d="M3034 301 c20 -22 26 -25 26 -13 0 4 -10 13 -22 21 -23 14 -23 14 -4
-8z"/>
<path d="M2410 301 c0 -6 4 -13 10 -16 6 -3 7 1 4 9 -7 18 -14 21 -14 7z"/>
</g>
</svg>
